<svg width="42" height="48" viewBox="0 0 42 48" fill="none" xmlns="http://www.w3.org/2000/svg">
<path d="M14 32C15.6569 32 17 30.6569 17 29C17 27.3431 15.6569 26 14 26C12.3431 26 11 27.3431 11 29C11 30.6569 12.3431 32 14 32Z" stroke-width="2" stroke-miterlimit="10" stroke-linejoin="round"/>
<path d="M8.99998 17H7.66699L5.83398 15.333" stroke-width="2" stroke-miterlimit="10" stroke-linejoin="round"/>
<path d="M29 18H30.167L31.833 17H38V9" stroke-width="2" stroke-miterlimit="10" stroke-linejoin="round"/>
<path d="M40.234 26.417L37.667 29H34V27.157L31.091 24H23V22.5C23 20.659 25.159 19 27 19V7" stroke-width="2" stroke-miterlimit="10" stroke-linejoin="round"/>
<path d="M20 27V32H23.054L25 34.539V41H28.188L31 37.62V29.833L27.667 27H23" stroke-width="2" stroke-miterlimit="10" stroke-linejoin="round"/>
<path d="M38.5 19.311C40.093 22.182 41 24.485 41 28C41 39.046 32.046 47 21 47C9.954 47 1 39.046 1 28C1 21.684 3.928 17.052 8.5 13.387" stroke-width="2" stroke-miterlimit="10" stroke-linejoin="round"/>
<path d="M29.3359 10.814C30.8339 11.502 32.2319 12.369 33.5019 13.388" stroke-width="2" stroke-miterlimit="10" stroke-linejoin="round"/>
<path d="M16 9.63C17.598 9.218 19.274 9 21 9C22.135 9 23.249 9.095 24.332 9.276" stroke-width="2" stroke-miterlimit="10" stroke-linejoin="round"/>
<path d="M1.83301 25.667L5.16602 29H8.00002V25.667L11 22H13V19C13 17.619 12.381 17 11 17V9" stroke-width="2" stroke-miterlimit="10" stroke-linejoin="round"/>
<path d="M20 27V17" stroke-width="2" stroke-miterlimit="10" stroke-linejoin="round"/>
<path d="M11.25 44.5L13 42.833V41.484L14 40.5V32" stroke-width="2" stroke-miterlimit="10" stroke-linejoin="round"/>
<path d="M10 33H9C7.896 33 7 33.896 7 35V42" stroke-width="2" stroke-miterlimit="10" stroke-linejoin="round"/>
<path d="M20 18C21.6569 18 23 16.6569 23 15C23 13.3431 21.6569 12 20 12C18.3431 12 17 13.3431 17 15C17 16.6569 18.3431 18 20 18Z" stroke-width="2" stroke-miterlimit="10" stroke-linejoin="round"/>
<path d="M11 9C12.6569 9 14 7.65685 14 6C14 4.34315 12.6569 3 11 3C9.34315 3 8 4.34315 8 6C8 7.65685 9.34315 9 11 9Z" stroke-width="2" stroke-miterlimit="10" stroke-linejoin="round"/>
<path d="M27 7C28.6569 7 30 5.65685 30 4C30 2.34315 28.6569 1 27 1C25.3431 1 24 2.34315 24 4C24 5.65685 25.3431 7 27 7Z" stroke-width="2" stroke-miterlimit="10" stroke-linejoin="round"/>
<path d="M38 10C39.6569 10 41 8.65685 41 7C41 5.34315 39.6569 4 38 4C36.3431 4 35 5.34315 35 7C35 8.65685 36.3431 10 38 10Z" stroke-width="2" stroke-miterlimit="10" stroke-linejoin="round"/>
</svg>
