<svg width="38" height="44" viewBox="0 0 38 44" fill="none" xmlns="http://www.w3.org/2000/svg">
<path d="M23.3418 5.53599L16.5973 0L9.85094 5.53599L0 0.783128L8.71665 15.6448H13.7298H16.5973H24.475L33.191 0.783128L23.3418 5.53599Z" fill="white"/>
<path d="M20.5991 22.2414H16.5973H15.1635H12.5925L8.72497 15.6431H0.623291L8.72497 29.462H15.1629H16.5967H24.4654L32.5695 15.6431H24.4654L20.5991 22.2414Z" fill="white"/>
<path d="M20.5991 36.0574H16.5973H15.1635H12.5925L8.72497 29.4614H0.623291L8.72497 43.2768H15.1629H16.5967H24.4654L32.5695 29.4614H24.4654L20.5991 36.0574Z" fill="white"/>
<path d="M29.481 13.8404L37.1382 0.783203H35.0484L27.3906 13.8404H29.481Z" fill="white"/>
<path d="M36.5172 15.6448H34.4269L27.3817 27.6574H29.4708L36.5172 15.6448Z" fill="white"/>
<path d="M34.4286 29.4619L26.3406 43.2772H28.4298L36.5184 29.4619H34.4286Z" fill="white"/>
</svg>
