<svg width="62" height="70" viewBox="0 0 62 70" fill="none" xmlns="http://www.w3.org/2000/svg">
<g clip-path="url(#clip0)">
<path d="M37.2966 9.03009L26.5086 0.0759277L15.7206 9.03009L-0.0302734 1.34176L13.9067 25.3795H21.9264H26.5101H39.1105L53.0489 1.34176L37.2966 9.03009Z" fill="#D9F4FF"/>
<path d="M32.9105 36.0515H26.5086H24.2189H20.1039L13.9226 25.3809H0.964615L13.9226 47.7284H24.2189H26.5086H39.0946L52.0541 25.3809H39.0946L32.9105 36.0515Z" fill="#D9F4FF"/>
<path d="M32.9105 58.3991H26.5086H24.2189H20.1039L13.9226 47.7285H0.964615L13.7582 70.3881H24.0546H26.3442H38.9302L52.0555 47.7285H39.0961L32.9105 58.3991Z" fill="#D9F4FF"/>
<path d="M38.9715 8.74717L28.1811 -0.207031L27.7239 0.356688L38.5142 9.31089L38.9715 8.74717Z" fill="#D9F4FF"/>
<path d="M40.7585 25.7455H15.3486V25.0163H40.3432L54.1779 1.15796L54.8008 1.52692L40.7585 25.7455Z" fill="#D9F4FF"/>
<path d="M18.7596 8.7002L3.00961 1.01294L2.6963 1.66963L18.4463 9.35689L18.7596 8.7002Z" fill="#D9F4FF"/>
<path d="M21.6433 8.7002L5.89333 1.01294L5.58001 1.66963L21.33 9.35689L21.6433 8.7002Z" fill="#D9F4FF"/>
<path d="M24.5269 8.7002L8.7769 1.01294L8.46358 1.66963L24.2136 9.35689L24.5269 8.7002Z" fill="#D9F4FF"/>
<path d="M27.4106 8.7002L11.6606 1.01294L11.3473 1.66963L27.0973 9.35689L27.4106 8.7002Z" fill="#D9F4FF"/>
<path d="M21.8565 35.8643L15.6757 25.1943L15.0537 25.5629L21.2344 36.2329L21.8565 35.8643Z" fill="#D9F4FF"/>
<path d="M40.7441 48.0928H15.3644V47.3636H40.3303L52.8672 25.7453H40.7441L34.6637 36.2351L34.0409 35.8661L40.3303 25.0161H54.126L40.7441 48.0928Z" fill="#D9F4FF"/>
<path d="M40.7441 70.4404H27.9504V69.7113H40.3302L52.8672 48.0929H40.7441L34.6637 58.5842L34.0408 58.2138L40.3302 47.3638H54.126L40.7441 70.4404Z" fill="#D9F4FF"/>
<path d="M21.8552 58.2218L15.673 47.5481L15.0509 47.9167L21.2331 58.5904L21.8552 58.2218Z" fill="#D9F4FF"/>
<path d="M40.4133 8.74717L29.623 -0.207031L29.1657 0.356688L39.9561 9.31089L40.4133 8.74717Z" fill="#D9F4FF"/>
<path d="M42.2004 25.7455H16.7905V25.0163H41.7851L55.6198 1.15796L56.2426 1.52692L42.2004 25.7455Z" fill="#D9F4FF"/>
<path d="M23.2982 35.8643L17.1175 25.1943L16.4954 25.5629L22.6762 36.2329L23.2982 35.8643Z" fill="#D9F4FF"/>
<path d="M42.1859 48.0928H16.8063V47.3636H41.7721L54.3091 25.7453H42.1859L36.1056 36.2351L35.4827 35.8661L41.7721 25.0161H55.5678L42.1859 48.0928Z" fill="#D9F4FF"/>
<path d="M42.1859 70.4404H29.3923V69.7113H41.7721L54.3091 48.0929H42.1859L36.1056 58.5842L35.4827 58.2138L41.7721 47.3638H55.5679L42.1859 70.4404Z" fill="#D9F4FF"/>
<path d="M23.297 58.2221L17.1148 47.5483L16.4927 47.9169L22.6749 58.5906L23.297 58.2221Z" fill="#D9F4FF"/>
<path d="M41.8553 8.74717L31.065 -0.207031L30.6077 0.356687L41.398 9.31089L41.8553 8.74717Z" fill="#D9F4FF"/>
<path d="M43.6422 25.7455H18.2323V25.0163H43.227L57.0616 1.15796L57.6845 1.52692L43.6422 25.7455Z" fill="#D9F4FF"/>
<path d="M24.74 35.8643L18.5593 25.1943L17.9373 25.5629L24.118 36.2329L24.74 35.8643Z" fill="#D9F4FF"/>
<path d="M43.6278 48.0928H18.2482V47.3636H43.214L55.751 25.7453H43.6278L37.5475 36.2351L36.9246 35.8661L43.214 25.0161H57.0097L43.6278 48.0928Z" fill="#D9F4FF"/>
<path d="M43.6278 70.4404H30.8342V69.7113H43.214L55.751 48.0929H43.6278L37.5475 58.5842L36.9246 58.2138L43.214 47.3638H57.0097L43.6278 70.4404Z" fill="#D9F4FF"/>
<path d="M24.739 58.2221L18.5568 47.5483L17.9347 47.9169L24.1169 58.5906L24.739 58.2221Z" fill="#D9F4FF"/>
<path d="M43.2972 8.74693L32.5069 -0.207275L32.0496 0.356443L42.8399 9.31065L43.2972 8.74693Z" fill="#D9F4FF"/>
<path d="M45.0841 25.7452H19.6742V25.016H44.6688L58.5035 1.15771L59.1264 1.52667L45.0841 25.7452Z" fill="#D9F4FF"/>
<path d="M26.1819 35.8643L20.0012 25.1943L19.3792 25.5629L25.5599 36.2329L26.1819 35.8643Z" fill="#D9F4FF"/>
<path d="M45.0697 48.0928H19.69V47.3636H44.6559L57.1928 25.7453H45.0697L38.9893 36.2351L38.3665 35.8661L44.6559 25.0161H58.4516L45.0697 48.0928Z" fill="#D9F4FF"/>
<path d="M45.0697 70.4402H32.276V69.711H44.6558L57.1928 48.0927H45.0697L38.9893 58.5839L38.3665 58.2135L44.6558 47.3635H58.4516L45.0697 70.4402Z" fill="#D9F4FF"/>
<path d="M26.1809 58.2221L19.9987 47.5483L19.3766 47.9169L25.5588 58.5906L26.1809 58.2221Z" fill="#D9F4FF"/>
<path d="M44.7305 8.74937L33.9427 -0.205322L33.4853 0.358323L44.2731 9.31301L44.7305 8.74937Z" fill="#D9F4FF"/>
<path d="M46.526 25.7457H21.1161V25.0165H46.1107L59.9454 1.1582L60.5683 1.52716L46.526 25.7457Z" fill="#D9F4FF"/>
<path d="M27.6237 35.8645L21.4429 25.1946L20.8209 25.5632L27.0016 36.2331L27.6237 35.8645Z" fill="#D9F4FF"/>
<path d="M46.5115 48.093H21.1319V47.3639H46.0977L58.6347 25.7455H46.5115L40.4312 36.2353L39.8083 35.8664L46.0977 25.0164H59.8935L46.5115 48.093Z" fill="#D9F4FF"/>
<path d="M46.5115 70.4407H33.7179V69.7115H46.0977L58.6347 48.0932H46.5115L40.4312 58.5844L39.8083 58.214L46.0977 47.364H59.8935L46.5115 70.4407Z" fill="#D9F4FF"/>
<path d="M27.6229 58.2225L21.4407 47.5488L20.8186 47.9174L27.0008 58.5911L27.6229 58.2225Z" fill="#D9F4FF"/>
<path d="M46.1724 8.74937L35.3846 -0.205322L34.9272 0.358324L45.715 9.31301L46.1724 8.74937Z" fill="#D9F4FF"/>
<path d="M47.9678 25.7457H22.5579V25.0165H47.5526L61.3872 1.1582L62.0101 1.52716L47.9678 25.7457Z" fill="#D9F4FF"/>
<path d="M29.0655 35.8645L22.8848 25.1946L22.2628 25.5632L28.4435 36.2331L29.0655 35.8645Z" fill="#D9F4FF"/>
<path d="M47.9534 48.093H22.5738V47.3639H47.5396L60.0766 25.7455H47.9534L41.8731 36.2353L41.2502 35.8664L47.5396 25.0164H61.3353L47.9534 48.093Z" fill="#D9F4FF"/>
<path d="M47.9534 70.4407H35.1598V69.7115H47.5396L60.0766 48.0932H47.9534L41.8731 58.5844L41.2502 58.214L47.5396 47.364H61.3353L47.9534 70.4407Z" fill="#D9F4FF"/>
<path d="M29.0648 58.2225L22.8826 47.5488L22.2605 47.9174L28.4427 58.5911L29.0648 58.2225Z" fill="#D9F4FF"/>
<path d="M45.72 9.31139L35.03 0.440348H26.5086V-0.288818H35.2895L46.1756 8.74847L45.72 9.31139Z" fill="#D9F4FF"/>
<path d="M47.9678 25.7454H22.5579V25.0162H47.5526L61.0686 1.70622H53.0475V0.977051H62.3288L47.9678 25.7454Z" fill="#D9F4FF"/>
<path d="M29.0655 35.8643L22.8848 25.1943L22.2628 25.5629L28.4435 36.2329L29.0655 35.8643Z" fill="#D9F4FF"/>
<path d="M47.9534 48.0928H13.9226V47.3636H47.5396L60.0766 25.7453H47.9534L41.8731 36.2351L41.2502 35.8661L47.5396 25.0161H61.3353L47.9534 48.0928Z" fill="#D9F4FF"/>
<path d="M47.9534 70.4404H35.1598V69.7113H47.5396L60.0766 48.0929H47.9534L41.8731 58.5842L41.2502 58.2138L47.5396 47.3638H61.3353L47.9534 70.4404Z" fill="#D9F4FF"/>
<path d="M29.0648 58.2223L22.8826 47.5486L22.2605 47.9172L28.4427 58.5909L29.0648 58.2223Z" fill="#D9F4FF"/>
<path d="M29.9806 9.35809L14.3047 1.70622H-0.0302734V0.977051L14.5441 1.01351L30.2949 8.70184L29.9806 9.35809Z" fill="#D9F4FF"/>
</g>
<defs>
<clipPath id="clip0">
<rect width="62" height="70" fill="white"/>
</clipPath>
</defs>
</svg>
