<svg width="60" height="70" viewBox="0 0 60 70" fill="none" xmlns="http://www.w3.org/2000/svg">
<path d="M37.7108 8.95434L26.8144 0L15.9151 8.95434L0 1.26669L14.0825 25.3051H22.1816H26.8144H39.5415L53.623 1.26669L37.7108 8.95434Z" fill="#D9F4FF"/>
<path d="M33.2796 35.9751H26.8143H24.498H20.3442L14.0959 25.3024H1.00694L14.0959 47.6541H24.497H26.8134H39.5261L52.6189 25.3024H39.5261L33.2796 35.9751Z" fill="#D9F4FF"/>
<path d="M33.2796 58.3221H26.8143H24.498H20.3442L14.0959 47.6532H1.00694L14.0959 69.9992H24.497H26.8134H39.5261L52.6189 47.6532H39.5261L33.2796 58.3221Z" fill="#D9F4FF"/>
<path d="M47.629 22.3865L60 1.26685H56.6238L44.2519 22.3865H47.629Z" fill="#D9F4FF"/>
<path d="M58.9968 25.3051H55.6197L44.2375 44.7351H47.6127L58.9968 25.3051Z" fill="#D9F4FF"/>
<path d="M55.6226 47.6541L42.5557 70H45.9309L58.9988 47.6541H55.6226Z" fill="#D9F4FF"/>
</svg>
