<svg width="48" height="54" viewBox="0 0 48 54" fill="none" xmlns="http://www.w3.org/2000/svg">
<g clip-path="url(#clip0)">
<path d="M28.8748 6.96609L20.5228 0.0585938L12.1708 6.96609L-0.0234375 1.03509L10.7665 19.5785H16.9753H20.5239H30.2791L41.0701 1.03509L28.8748 6.96609Z" fill="white"/>
<path d="M25.479 27.8112H20.5228H18.7501H15.5643L10.7788 19.5796H0.746765L10.7788 36.8191H18.7501H20.5228H30.2668L40.2999 19.5796H30.2668L25.479 27.8112Z" fill="white"/>
<path d="M25.479 45.0507H20.5228H18.7501H15.5643L10.7788 36.8191H0.746765L10.6515 54.2993H18.6229H20.3955H30.1395L40.301 36.8191H30.2679L25.479 45.0507Z" fill="white"/>
<path d="M30.1714 6.74786L21.8176 -0.159668L21.4636 0.275201L29.8174 7.18273L30.1714 6.74786Z" fill="white"/>
<path d="M31.5549 19.8608H11.8828V19.2983H31.2334L41.9441 0.893311L42.4264 1.17794L31.5549 19.8608Z" fill="white"/>
<path d="M14.5236 6.71166L2.33002 0.781494L2.08745 1.28808L14.281 7.21825L14.5236 6.71166Z" fill="white"/>
<path d="M16.7561 6.71167L4.56256 0.781494L4.31999 1.28808L16.5135 7.21825L16.7561 6.71167Z" fill="white"/>
<path d="M18.9886 6.71167L6.79504 0.781494L6.55248 1.28808L18.746 7.21825L18.9886 6.71167Z" fill="white"/>
<path d="M21.2211 6.71167L9.02759 0.781494L8.78502 1.28808L20.9786 7.21825L21.2211 6.71167Z" fill="white"/>
<path d="M16.9211 27.6669L12.136 19.4358L11.6545 19.7201L16.4396 27.9513L16.9211 27.6669Z" fill="white"/>
<path d="M31.5438 37.1003H11.895V36.5378H31.2234L40.9294 19.8608H31.5438L26.8364 27.953L26.3542 27.6683L31.2234 19.2983H41.904L31.5438 37.1003Z" fill="white"/>
<path d="M31.5438 54.3398H21.639V53.7773H31.2234L40.9295 37.1003H31.5438L26.8364 45.1936L26.3542 44.9078L31.2234 36.5378H41.904L31.5438 54.3398Z" fill="white"/>
<path d="M16.9201 44.9142L12.1339 36.6802L11.6523 36.9645L16.4385 45.1985L16.9201 44.9142Z" fill="white"/>
<path d="M31.2877 6.74786L22.9339 -0.159668L22.5799 0.275201L30.9337 7.18273L31.2877 6.74786Z" fill="white"/>
<path d="M32.6713 19.8608H12.9991V19.2983H32.3498L43.0605 0.893311L43.5427 1.17794L32.6713 19.8608Z" fill="white"/>
<path d="M18.0373 27.6669L13.2522 19.4358L12.7706 19.7201L17.5557 27.9513L18.0373 27.6669Z" fill="white"/>
<path d="M32.6601 37.1003H13.0114V36.5378H32.3397L42.0458 19.8608H32.6601L27.9527 27.953L27.4705 27.6683L32.3397 19.2983H43.0203L32.6601 37.1003Z" fill="white"/>
<path d="M32.6601 54.3398H22.7553V53.7773H32.3397L42.0457 37.1003H32.6601L27.9527 45.1936L27.4705 44.9078L32.3397 36.5378H43.0202L32.6601 54.3398Z" fill="white"/>
<path d="M18.0364 44.9142L13.2502 36.6802L12.7686 36.9645L17.5548 45.1985L18.0364 44.9142Z" fill="white"/>
<path d="M32.4041 6.74786L24.0503 -0.159668L23.6963 0.275201L32.0501 7.18273L32.4041 6.74786Z" fill="white"/>
<path d="M33.7875 19.8608H14.1154V19.2983H33.4661L44.1768 0.893311L44.659 1.17794L33.7875 19.8608Z" fill="white"/>
<path d="M19.1536 27.6669L14.3685 19.4358L13.887 19.7201L18.6721 27.9513L19.1536 27.6669Z" fill="white"/>
<path d="M33.7764 37.1003H14.1276V36.5378H33.456L43.162 19.8608H33.7764L29.069 27.953L28.5868 27.6683L33.456 19.2983H44.1366L33.7764 37.1003Z" fill="white"/>
<path d="M33.7764 54.3398H23.8716V53.7773H33.456L43.1621 37.1003H33.7764L29.069 45.1936L28.5868 44.9078L33.456 36.5378H44.1366L33.7764 54.3398Z" fill="white"/>
<path d="M19.1528 44.9142L14.3666 36.6802L13.885 36.9645L18.6712 45.1985L19.1528 44.9142Z" fill="white"/>
<path d="M33.5204 6.74762L25.1666 -0.159912L24.8125 0.274957L33.1663 7.18248L33.5204 6.74762Z" fill="white"/>
<path d="M34.9038 19.8606H15.2316V19.2981H34.5823L45.293 0.893066L45.7753 1.17769L34.9038 19.8606Z" fill="white"/>
<path d="M20.2699 27.6667L15.4848 19.4355L15.0032 19.7199L19.7883 27.951L20.2699 27.6667Z" fill="white"/>
<path d="M34.8926 37.1001H15.2439V36.5376H34.5723L44.2783 19.8606H34.8926L30.1853 27.9527L29.7031 27.6681L34.5723 19.2981H45.2528L34.8926 37.1001Z" fill="white"/>
<path d="M34.8927 54.3396H24.9879V53.7771H34.5723L44.2783 37.1001H34.8927L30.1853 45.1933L29.7031 44.9076L34.5723 36.5376H45.2529L34.8927 54.3396Z" fill="white"/>
<path d="M20.2691 44.9142L15.4828 36.6802L15.0012 36.9645L19.7874 45.1985L20.2691 44.9142Z" fill="white"/>
<path d="M34.63 6.74946L26.2781 -0.158447L25.9241 0.276365L34.2759 7.18427L34.63 6.74946Z" fill="white"/>
<path d="M36.0201 19.8608H16.3479V19.2983H35.6986L46.4093 0.893311L46.8915 1.17794L36.0201 19.8608Z" fill="white"/>
<path d="M21.386 27.6669L16.601 19.4358L16.1194 19.7201L20.9045 27.9513L21.386 27.6669Z" fill="white"/>
<path d="M36.0089 37.1003H16.3602V36.5378H35.6885L45.3946 19.8608H36.0089L31.3016 27.953L30.8193 27.6683L35.6885 19.2983H46.3691L36.0089 37.1003Z" fill="white"/>
<path d="M36.0089 54.3398H26.1042V53.7773H35.6886L45.3946 37.1003H36.0089L31.3016 45.1936L30.8194 44.9078L35.6886 36.5378H46.3691L36.0089 54.3398Z" fill="white"/>
<path d="M21.3855 44.9144L16.5992 36.6804L16.1176 36.9648L20.9038 45.1988L21.3855 44.9144Z" fill="white"/>
<path d="M35.7463 6.74946L27.3945 -0.158447L27.0404 0.276365L35.3922 7.18427L35.7463 6.74946Z" fill="white"/>
<path d="M37.1364 19.8608H17.4642V19.2983H36.8149L47.5256 0.893311L48.0079 1.17794L37.1364 19.8608Z" fill="white"/>
<path d="M22.5024 27.6669L17.7173 19.4358L17.2357 19.7201L22.0208 27.9513L22.5024 27.6669Z" fill="white"/>
<path d="M37.1252 37.1003H17.4765V36.5378H36.8049L46.5109 19.8608H37.1252L32.4179 27.953L31.9357 27.6683L36.8049 19.2983H47.4854L37.1252 37.1003Z" fill="white"/>
<path d="M37.1253 54.3398H27.2205V53.7773H36.8049L46.5109 37.1003H37.1253L32.4179 45.1936L31.9357 44.9078L36.8049 36.5378H47.4855L37.1253 54.3398Z" fill="white"/>
<path d="M22.5018 44.9144L17.7156 36.6804L17.234 36.9648L22.0202 45.1988L22.5018 44.9144Z" fill="white"/>
<path d="M35.3961 7.18322L27.12 0.339844H20.5228V-0.222656H27.321L35.7489 6.74897L35.3961 7.18322Z" fill="white"/>
<path d="M37.1364 19.8609H17.4642V19.2984H36.8149L47.2789 1.31641H41.0691V0.753906H48.2546L37.1364 19.8609Z" fill="white"/>
<path d="M22.5023 27.6669L17.7172 19.4358L17.2357 19.7201L22.0207 27.9513L22.5023 27.6669Z" fill="white"/>
<path d="M37.1252 37.1003H10.7788V36.5378H36.8049L46.5109 19.8608H37.1252L32.4179 27.953L31.9356 27.6683L36.8049 19.2983H47.4854L37.1252 37.1003Z" fill="white"/>
<path d="M37.1252 54.3398H27.2205V53.7773H36.8048L46.5109 37.1003H37.1252L32.4179 45.1936L31.9356 44.9078L36.8048 36.5378H47.4854L37.1252 54.3398Z" fill="white"/>
<path d="M22.5018 44.9144L17.7156 36.6804L17.234 36.9648L22.0202 45.1988L22.5018 44.9144Z" fill="white"/>
<path d="M23.2108 7.21928L11.0746 1.31641H-0.0234375V0.753906L11.2599 0.782031L23.4541 6.71303L23.2108 7.21928Z" fill="white"/>
</g>
<defs>
<clipPath id="clip0">
<rect width="48" height="54" fill="white"/>
</clipPath>
</defs>
</svg>
