<svg width="42" height="48" viewBox="0 0 42 48" fill="none" xmlns="http://www.w3.org/2000/svg">
<g clip-path="url(#clip0)">
<path d="M25.2654 6.19322L17.9574 0.0532227L10.6494 6.19322L-0.0205078 0.921223L9.4207 17.4042H14.8534H17.9584H26.4942L35.9364 0.921223L25.2654 6.19322Z" fill="#18A0FB"/>
<path d="M22.2942 24.7211H17.9574H16.4064H13.6187L9.43144 17.4041H0.653442L9.43144 32.7281H16.4064H17.9574H26.4834L35.2624 17.4041H26.4834L22.2942 24.7211Z" fill="#18A0FB"/>
<path d="M22.2942 40.045H17.9574H16.4064H13.6187L9.43144 32.728H0.653442L9.32009 48.266H16.295H17.8461H26.3721L35.2634 32.728H26.4844L22.2942 40.045Z" fill="#18A0FB"/>
<path d="M26.4 5.99806L19.0905 -0.141968L18.7807 0.244582L26.0902 6.38461L26.4 5.99806Z" fill="#18A0FB"/>
<path d="M27.6106 17.6539H10.3975V17.1539H27.3293L36.7012 0.793945L37.1231 1.04695L27.6106 17.6539Z" fill="#18A0FB"/>
<path d="M12.7081 5.96596L2.03876 0.694702L1.82651 1.145L12.4959 6.41626L12.7081 5.96596Z" fill="#18A0FB"/>
<path d="M14.6616 5.96597L3.99225 0.694702L3.78 1.145L14.4493 6.41627L14.6616 5.96597Z" fill="#18A0FB"/>
<path d="M16.615 5.96584L5.94562 0.69458L5.73337 1.14488L16.4027 6.41614L16.615 5.96584Z" fill="#18A0FB"/>
<path d="M18.5685 5.96584L7.89911 0.69458L7.68686 1.14488L18.3562 6.41614L18.5685 5.96584Z" fill="#18A0FB"/>
<path d="M14.806 24.5927L10.6191 17.2761L10.1977 17.5289L14.3847 24.8454L14.806 24.5927Z" fill="#18A0FB"/>
<path d="M27.6009 32.9779H10.4082V32.4779H27.3205L35.8133 17.6539H27.6009L23.4819 24.8469L23.06 24.5939L27.3205 17.1539H36.666L27.6009 32.9779Z" fill="#18A0FB"/>
<path d="M27.6008 48.302H18.9341V47.802H27.3205L35.8133 32.978H27.6008L23.4819 40.172L23.0599 39.918L27.3205 32.478H36.666L27.6008 48.302Z" fill="#18A0FB"/>
<path d="M14.8051 39.9236L10.6171 32.6045L10.1957 32.8572L14.3836 40.1764L14.8051 39.9236Z" fill="#18A0FB"/>
<path d="M27.3768 5.99806L20.0672 -0.141968L19.7574 0.244582L27.067 6.38461L27.3768 5.99806Z" fill="#18A0FB"/>
<path d="M28.5873 17.6539H11.3741V17.1539H28.306L37.6779 0.793945L38.0998 1.04695L28.5873 17.6539Z" fill="#18A0FB"/>
<path d="M15.7827 24.5927L11.5957 17.2761L11.1743 17.5289L15.3613 24.8454L15.7827 24.5927Z" fill="#18A0FB"/>
<path d="M28.5775 32.9779H11.3849V32.4779H28.2972L36.79 17.6539H28.5775L24.4586 24.8469L24.0367 24.5939L28.2972 17.1539H37.6427L28.5775 32.9779Z" fill="#18A0FB"/>
<path d="M28.5775 48.302H19.9109V47.802H28.2972L36.79 32.978H28.5775L24.4586 40.172L24.0367 39.918L28.2972 32.478H37.6427L28.5775 48.302Z" fill="#18A0FB"/>
<path d="M15.7818 39.9237L11.5939 32.6046L11.1725 32.8574L15.3604 40.1765L15.7818 39.9237Z" fill="#18A0FB"/>
<path d="M28.3536 5.99806L21.0441 -0.141968L20.7343 0.244582L28.0439 6.38461L28.3536 5.99806Z" fill="#18A0FB"/>
<path d="M29.5641 17.6539H12.351V17.1539H29.2828L38.6547 0.793945L39.0766 1.04695L29.5641 17.6539Z" fill="#18A0FB"/>
<path d="M16.7594 24.5927L12.5724 17.2761L12.1511 17.5289L16.338 24.8454L16.7594 24.5927Z" fill="#18A0FB"/>
<path d="M29.5543 32.9779H12.3617V32.4779H29.274L37.7668 17.6539H29.5543L25.4354 24.8469L25.0135 24.5939L29.274 17.1539H38.6195L29.5543 32.9779Z" fill="#18A0FB"/>
<path d="M29.5543 48.302H20.8877V47.802H29.274L37.7668 32.978H29.5543L25.4354 40.172L25.0135 39.918L29.274 32.478H38.6195L29.5543 48.302Z" fill="#18A0FB"/>
<path d="M16.7587 39.9237L12.5707 32.6046L12.1493 32.8574L16.3373 40.1765L16.7587 39.9237Z" fill="#18A0FB"/>
<path d="M29.3304 5.99794L22.0208 -0.14209L21.711 0.24446L29.0206 6.38449L29.3304 5.99794Z" fill="#18A0FB"/>
<path d="M30.5409 17.6539H13.3277V17.1539H30.2596L39.6314 0.793945L40.0534 1.04695L30.5409 17.6539Z" fill="#18A0FB"/>
<path d="M17.7361 24.5927L13.5492 17.2761L13.1278 17.5289L17.3148 24.8454L17.7361 24.5927Z" fill="#18A0FB"/>
<path d="M30.5311 32.9779H13.3384V32.4779H30.2508L38.7436 17.6539H30.5311L26.4122 24.8469L25.9902 24.5939L30.2508 17.1539H39.5963L30.5311 32.9779Z" fill="#18A0FB"/>
<path d="M30.5311 48.3019H21.8644V47.8019H30.2508L38.7436 32.9779H30.5311L26.4122 40.1719L25.9902 39.9179L30.2508 32.4779H39.5963L30.5311 48.3019Z" fill="#18A0FB"/>
<path d="M17.7354 39.9237L13.5475 32.6046L13.1261 32.8574L17.314 40.1765L17.7354 39.9237Z" fill="#18A0FB"/>
<path d="M30.3013 5.99949L22.9935 -0.140869L22.6836 0.245631L29.9915 6.38599L30.3013 5.99949Z" fill="#18A0FB"/>
<path d="M31.5176 17.6541H14.3044V17.1541H31.2363L40.6082 0.794067L41.0301 1.04707L31.5176 17.6541Z" fill="#18A0FB"/>
<path d="M18.7128 24.5927L14.5259 17.2761L14.1045 17.5289L18.2915 24.8454L18.7128 24.5927Z" fill="#18A0FB"/>
<path d="M31.5078 32.9781H14.3152V32.4781H31.2275L39.7203 17.6541H31.5078L27.3889 24.8471L26.967 24.5941L31.2275 17.1541H40.573L31.5078 32.9781Z" fill="#18A0FB"/>
<path d="M31.5078 48.302H22.8412V47.802H31.2275L39.7203 32.978H31.5078L27.3889 40.172L26.967 39.918L31.2275 32.478H40.573L31.5078 48.302Z" fill="#18A0FB"/>
<path d="M18.7123 39.9239L14.5244 32.6047L14.1029 32.8575L18.2909 40.1766L18.7123 39.9239Z" fill="#18A0FB"/>
<path d="M31.278 5.99949L23.9702 -0.140869L23.6603 0.245631L30.9682 6.38599L31.278 5.99949Z" fill="#18A0FB"/>
<path d="M32.4943 17.6541H15.2811V17.1541H32.213L41.5848 0.794067L42.0068 1.04707L32.4943 17.6541Z" fill="#18A0FB"/>
<path d="M19.6895 24.5927L15.5026 17.2761L15.0812 17.5289L19.2681 24.8454L19.6895 24.5927Z" fill="#18A0FB"/>
<path d="M32.4845 32.9781H15.2919V32.4781H32.2042L40.697 17.6541H32.4845L28.3656 24.8471L27.9436 24.5941L32.2042 17.1541H41.5497L32.4845 32.9781Z" fill="#18A0FB"/>
<path d="M32.4845 48.302H23.8179V47.802H32.2042L40.697 32.978H32.4845L28.3656 40.172L27.9436 39.918L32.2042 32.478H41.5497L32.4845 48.302Z" fill="#18A0FB"/>
<path d="M19.689 39.924L15.501 32.6049L15.0796 32.8576L19.2676 40.1767L19.689 39.924Z" fill="#18A0FB"/>
<path d="M30.9716 6.385L23.73 0.302002H17.9575V-0.197998H23.9058L31.2803 5.999L30.9716 6.385Z" fill="#18A0FB"/>
<path d="M32.4944 17.654H15.2812V17.154H32.213L41.369 1.17004H35.9354V0.670044H42.2227L32.4944 17.654Z" fill="#18A0FB"/>
<path d="M19.6896 24.5927L15.5026 17.2761L15.0813 17.5289L19.2682 24.8454L19.6896 24.5927Z" fill="#18A0FB"/>
<path d="M32.4846 32.9781H9.43146V32.4781H32.2042L40.697 17.6541H32.4846L28.3656 24.8471L27.9437 24.5941L32.2042 17.1541H41.5497L32.4846 32.9781Z" fill="#18A0FB"/>
<path d="M32.4846 48.302H23.8179V47.802H32.2043L40.6971 32.978H32.4846L28.3657 40.172L27.9437 39.918L32.2043 32.478H41.5497L32.4846 48.302Z" fill="#18A0FB"/>
<path d="M19.689 39.924L15.5011 32.6049L15.0797 32.8576L19.2676 40.1767L19.689 39.924Z" fill="#18A0FB"/>
<path d="M20.3094 6.41704L9.69028 1.17004H-0.0205078V0.670044L9.85242 0.695044L20.5224 5.96704L20.3094 6.41704Z" fill="#18A0FB"/>
</g>
<defs>
<clipPath id="clip0">
<rect width="42" height="48" fill="white"/>
</clipPath>
</defs>
</svg>
