<svg width="51" height="51" viewBox="0 0 51 51" fill="none" xmlns="http://www.w3.org/2000/svg">
<path d="M36.6479 36.6479C42.8962 30.3996 42.7379 20.1107 36.2944 13.6672C29.8508 7.22356 19.5619 7.06527 13.3136 13.3136C7.06527 19.5619 7.22356 29.8508 13.6672 36.2943C20.1107 42.7379 30.3996 42.8962 36.6479 36.6479Z"  stroke-width="2" stroke-miterlimit="10" stroke-linejoin="round"/>
<path d="M12.6077 33.8181L6.95068 39.4751"  stroke-width="2" stroke-miterlimit="10" stroke-linejoin="round"/>
<path d="M14.0216 18.2621L21.0926 25.3331L14.7286 31.6971"  stroke-width="2" stroke-miterlimit="10" stroke-linejoin="round"/>
<path d="M6.95068 11.191L11.1937 15.433"  stroke-width="2" stroke-miterlimit="10" stroke-linejoin="round"/>
<path d="M17.5577 10.4841L12.6077 5.53406"  stroke-width="2" stroke-miterlimit="10" stroke-linejoin="round"/>
<path d="M31.6996 14.7261L26.7496 19.6761L19.6786 12.6051"  stroke-width="2" stroke-miterlimit="10" stroke-linejoin="round"/>
<path d="M39.4777 6.94812L34.5287 11.8981"  stroke-width="2" stroke-miterlimit="10" stroke-linejoin="round"/>
<path d="M39.4777 18.2621L45.1347 12.6051"  stroke-width="2" stroke-miterlimit="10" stroke-linejoin="round"/>
<path d="M21.0927 36.6471L25.7467 31.9931L31.9957 25.7441L36.6497 21.0901"  stroke-width="2" stroke-miterlimit="10" stroke-linejoin="round"/>
<path d="M12.6077 45.1321L18.2647 39.4751"  stroke-width="2" stroke-miterlimit="10" stroke-linejoin="round"/>
<path d="M36.6497 36.6471L49.3766 49.3741"  stroke-width="2" stroke-miterlimit="10" stroke-linejoin="round"/>
</svg>
