<svg width="44" height="44" viewBox="0 0 44 44" fill="none" xmlns="http://www.w3.org/2000/svg">
<path d="M6.00427 26C6.00427 25.729 5.03528 25.59 4.41428 25.59C2.53028 25.59 1.00427 27.116 1.00427 29V7C1.00427 5.116 2.53028 4 4.41428 4C5.03528 4 6.00427 4.294 6.00427 5V26Z"  stroke-width="2" stroke-miterlimit="10" stroke-linejoin="round"/>
<path d="M15.0043 8H7.00427"  stroke-width="2" stroke-miterlimit="10" stroke-linejoin="round"/>
<path d="M1.00427 29C1.01627 32.133 3.47627 33 6.00427 33C16.5873 33 31.1783 33 42.0043 33V8H25.0043"  stroke-width="2" stroke-miterlimit="10" stroke-linejoin="round"/>
<path d="M19.9803 11C21.6504 11 23.0042 9.65591 23.0042 7.99796C23.0042 6.34 21.6504 4.99597 19.9803 4.99597C18.3101 4.99597 16.9562 6.34 16.9562 7.99796C16.9562 9.65591 18.3101 11 19.9803 11Z"  stroke-width="2" stroke-miterlimit="10" stroke-linejoin="round"/>
<path d="M28.4853 16C26.4593 18.423 23.4003 19.966 19.9793 19.966C16.5583 19.966 13.5003 18.423 11.4733 16"  stroke-width="2" stroke-miterlimit="10" stroke-linejoin="round"/>
<path d="M20.0043 5V0"  stroke-width="2" stroke-miterlimit="10" stroke-linejoin="round"/>
<path d="M18.9133 10.804L13.0043 26"  stroke-width="2" stroke-miterlimit="10" stroke-linejoin="round"/>
<path d="M21.0902 10.793L27.0042 26"  stroke-width="2" stroke-miterlimit="10" stroke-linejoin="round"/>
<path d="M2.00425 38H30.0042C33.4422 38 35.7142 40.479 35.7142 40.479C35.7142 40.479 33.4422 43 30.0042 43H2.00425C0.717246 42.089 0.614246 38.983 2.00425 38Z"  stroke-width="2" stroke-miterlimit="10"/>
<path d="M6.00427 43V38"  stroke-width="2" stroke-miterlimit="10"/>
</svg>
