<svg width="47" height="46" fill="none" xmlns="http://www.w3.org/2000/svg"><path d="M32 27c2.29 0 4-1.918 4-4.285v-1.43C36 18.919 34.29 17 32 17s-4 1.919-4 4.285v1.43C28 25.082 29.71 27 32 27zm-13 3c2.29 0 4-1.918 4-4.285v-1.43C23 21.919 21.29 20 19 20s-4 1.919-4 4.285v1.43C15 28.082 16.71 30 19 30zm18 16V36s5.898-4.113 7-5c1.281-1.031 2.469-3.563 1-7-2.252 1.355-6 4-9 6h-7c-3.583 0-6 1.512-6 6v10m-2-13h-3c-3.583 0-6 1.512-6 6v7M6 35c2.29 0 4-1.918 4-4.285v-1.43C10 26.919 8.29 25 6 25s-4 1.919-4 4.285v1.43C2 33.082 3.71 35 6 35zm4 3H7c-3.583 0-6 1.512-6 6v2m26-10v10m18-22V0M33 5h-8l2 4-2 4h10v-2m10-8H35v8h10V3z"/></svg>