<svg width="42" height="48" fill="none" xmlns="http://www.w3.org/2000/svg"><path d="M14 32a3 3 0 100-6 3 3 0 000 6zM9 17H7.667l-1.833-1.667M29 18h1.167l1.666-1H38V9"/><path d="M40.234 26.417L37.667 29H34v-1.843L31.091 24H23v-1.5c0-1.841 2.159-3.5 4-3.5V7m-7 20v5h3.054L25 34.539V41h3.188L31 37.62v-7.787L27.667 27H23"/><path d="M38.5 19.311C40.093 22.182 41 24.485 41 28c0 11.046-8.954 19-20 19S1 39.046 1 28c0-6.316 2.928-10.948 7.5-14.613m20.836-2.573a19.988 19.988 0 014.166 2.574M16 9.63a20.21 20.21 0 018.332-.354"/><path d="M1.833 25.667L5.166 29H8v-3.333L11 22h2v-3c0-1.381-.619-2-2-2V9m9 18V17m-8.75 27.5L13 42.833v-1.349l1-.984V32m-4 1H9a2 2 0 00-2 2v7m13-24a3 3 0 100-6 3 3 0 000 6zm-9-9a3 3 0 100-6 3 3 0 000 6zm16-2a3 3 0 100-6 3 3 0 000 6zm11 3a3 3 0 100-6 3 3 0 000 6z"/></svg>