<svg width="41" height="48" viewBox="0 0 41 48" fill="none" xmlns="http://www.w3.org/2000/svg">
<path d="M25.7691 6.14012L18.3232 0L10.8753 6.14012L0 0.868589L9.62306 17.3521H15.1575H18.3232H27.02L36.6424 0.868589L25.7691 6.14012Z" fill="#18A0FB"/>
<path d="M22.7411 24.6686H18.3231H16.7403H13.9019L9.63218 17.3502H0.688049L9.63218 32.6771H16.7396H18.3225H27.0094L35.9562 17.3502H27.0094L22.7411 24.6686Z" fill="#18A0FB"/>
<path d="M22.7411 39.9923H18.3231H16.7403H13.9019L9.63218 32.6765H0.688049L9.63218 47.9994H16.7396H18.3225H27.0094L35.9562 32.6765H27.0094L22.7411 39.9923Z" fill="#18A0FB"/>
<path d="M32.5465 15.3508L41 0.868713H38.693L30.2388 15.3508H32.5465Z" fill="#18A0FB"/>
<path d="M40.3145 17.3521H38.0068L30.2289 30.6756H32.5353L40.3145 17.3521Z" fill="#18A0FB"/>
<path d="M38.0088 32.6771L29.0797 48.0001H31.3861L40.3158 32.6771H38.0088Z" fill="#18A0FB"/>
</svg>
