<svg width="38" height="44" fill="none" xmlns="http://www.w3.org/2000/svg"><path d="M23.342 5.536L16.597 0 9.851 5.536 0 .783l8.717 14.862h15.758L33.191.783l-9.85 4.753z" fill="#fff"/><path d="M20.6 22.241h-8.007l-3.868-6.598H.623l8.102 13.819h15.74l8.104-13.819h-8.104L20.6 22.241z" fill="#fff"/><path d="M20.6 36.057h-8.007l-3.868-6.596H.623l8.102 13.816h15.74L32.57 29.46h-8.104L20.6 36.057zm8.881-22.217L37.138.783h-2.09L27.391 13.84h2.09zm7.036 1.805h-2.09l-7.045 12.012h2.089l7.046-12.012zm-2.088 13.817L26.34 43.277h2.089l8.088-13.815h-2.09z" fill="#fff"/></svg>