<svg width="60" height="70" fill="none" xmlns="http://www.w3.org/2000/svg"><path d="M37.71 8.954L26.815 0l-10.9 8.954L0 1.267l14.082 24.038h25.459L53.623 1.267 37.711 8.954z" fill="#D9F4FF"/><path d="M33.28 35.975H20.344l-6.248-10.673H1.006l13.09 22.352h25.43L52.62 25.302H39.526L33.28 35.975z" fill="#D9F4FF"/><path d="M33.28 58.322H20.344l-6.248-10.669H1.006L14.097 70h25.43L52.62 47.653H39.526l-6.246 10.67zm14.349-35.935L60 1.267h-3.376l-12.372 21.12h3.377zm11.368 2.918H55.62l-11.383 19.43h3.376l11.384-19.43zm-3.374 22.349L42.556 70h3.375l13.068-22.346h-3.376z" fill="#D9F4FF"/></svg>