<svg width="44" height="44" fill="none" xmlns="http://www.w3.org/2000/svg"><path d="M6.004 26c0-.271-.969-.41-1.59-.41A3.41 3.41 0 001.004 29V7c0-1.884 1.526-3 3.41-3 .621 0 1.59.294 1.59 1v21zm9-18h-8"/><path d="M1.004 29c.012 3.133 2.472 4 5 4h36V8h-17m-5.024 3c1.67 0 3.024-1.344 3.024-3.002 0-1.658-1.354-3.002-3.024-3.002s-3.024 1.344-3.024 3.002C16.956 9.656 18.31 11 19.98 11z"/><path d="M28.485 16a11.06 11.06 0 01-8.506 3.966A11.06 11.06 0 0111.473 16m8.531-11V0m-1.091 10.804L13.004 26m8.086-15.207L27.004 26m-25 12h28c3.438 0 5.71 2.479 5.71 2.479S33.442 43 30.004 43h-28c-1.287-.911-1.39-4.017 0-5zm4 5v-5"/></svg>