<svg width="48" height="47" fill="none" xmlns="http://www.w3.org/2000/svg"><path d="M20 34v-1c0-1.778-4.676-4-8.5-4C7.675 29 3 32.222 3 34v10m23 2l5-10H17l-3 7H8M21 3v22a2 2 0 002 2h2v4.297c0 .928 1.155 1.355 1.759.65L31 27h14a2 2 0 002-2V3a2 2 0 00-2-2H23a2 2 0 00-2 2zM0 46h47M12.996 12.368C14.801 13.083 16 14.784 16 17v2M6 19v-2c0-2.214 1.198-3.916 3-4.63M11 10v5m-7 4h14M7 21v1c0 2.367 1.669 4 4 4s4-1.633 4-4v-1"/><path d="M34.023 17a3.023 3.023 0 100-6.046 3.023 3.023 0 000 6.046z"/><path d="M41.023 13.977c0-.555-.071-1.093-.193-1.61l1.965-1.135-2-3.464L38.834 8.9a6.986 6.986 0 00-2.833-1.636V5h-4v2.276a6.978 6.978 0 00-2.805 1.64l-1.99-1.148-2 3.464 2.005 1.158a6.984 6.984 0 00-.188 1.587c0 .561.073 1.104.198 1.627l-2.015 1.164 2 3.464 2.021-1.166a6.999 6.999 0 002.774 1.612V23h4v-2.311a6.98 6.98 0 002.802-1.607l1.992 1.15 2-3.464-1.975-1.141c.127-.53.203-1.081.203-1.65z"/></svg>