<?xml version="1.0" encoding="utf-8"?><svg viewBox="0 0 51 54" xmlns="http://www.w3.org/2000/svg" xmlns:xlink="http://www.w3.org/1999/xlink"><style>:root>svg{display:none}:root>svg:target{display:block}</style><svg fill="none" viewBox="0 0 46 46" id="info-icon1" xmlns="http://www.w3.org/2000/svg"><path d="M38.047 6.95A21.943 21.943 0 0145 23c0 12.15-9.85 22-22 22S1 35.15 1 23 10.85 1 23 1c2.825 0 5.525.532 8.007 1.502"/><path d="M10.003 32.334C12.908 36.371 17.646 39 23 39c8.837 0 16-7.163 16-16S31.837 7 23 7 7 14.163 7 23v2m31-14V7h4"/><path d="M10 22l-3 3-3-3m19 11c5.523 0 10-4.477 10-10s-4.477-10-10-10-10 4.477-10 10 4.477 10 10 10z"/><path d="M28 18l-5 6-4-3"/></svg><svg fill="none" viewBox="0 0 48 42" id="info-icon2" xmlns="http://www.w3.org/2000/svg"><path d="M7 1h28v6l11 19v2M11 10c5.052 0 9.315 3.836 9.925 16.02M19 10c5.052 0 9.315 3.924 9.925 16.107"/><path d="M11 10h15c5.052 0 9.479 3.917 10 17M16 8V5m8 3V5M10 5h21v4M1 19V1h6v6l9 19v3m2.945-2.724a4.506 4.506 0 015.958 3.29M7 41h4m4 0h11"/><path d="M24.401 28.252a4 4 0 017.505.881l-.002-.001A4.994 4.994 0 0136 27m0 0a4 4 0 014 4h7m-4 6h-8a3 3 0 10-6 0h-4M2 35h10a3 3 0 116 0h3"/></svg><svg fill="none" viewBox="0 0 42 48" id="info-icon3" xmlns="http://www.w3.org/2000/svg"><path d="M14 32a3 3 0 100-6 3 3 0 000 6zM9 17H7.667l-1.833-1.667M29 18h1.167l1.666-1H38V9"/><path d="M40.234 26.417L37.667 29H34v-1.843L31.091 24H23v-1.5c0-1.841 2.159-3.5 4-3.5V7m-7 20v5h3.054L25 34.539V41h3.188L31 37.62v-7.787L27.667 27H23"/><path d="M38.5 19.311C40.093 22.182 41 24.485 41 28c0 11.046-8.954 19-20 19S1 39.046 1 28c0-6.316 2.928-10.948 7.5-14.613m20.836-2.573a19.988 19.988 0 014.166 2.574M16 9.63a20.21 20.21 0 018.332-.354"/><path d="M1.833 25.667L5.166 29H8v-3.333L11 22h2v-3c0-1.381-.619-2-2-2V9m9 18V17m-8.75 27.5L13 42.833v-1.349l1-.984V32m-4 1H9a2 2 0 00-2 2v7m13-24a3 3 0 100-6 3 3 0 000 6zm-9-9a3 3 0 100-6 3 3 0 000 6zm16-2a3 3 0 100-6 3 3 0 000 6zm11 3a3 3 0 100-6 3 3 0 000 6z"/></svg><svg fill="none" viewBox="0 0 47 46" id="info-icon4" xmlns="http://www.w3.org/2000/svg"><path d="M32 27c2.29 0 4-1.918 4-4.285v-1.43C36 18.919 34.29 17 32 17s-4 1.919-4 4.285v1.43C28 25.082 29.71 27 32 27zm-13 3c2.29 0 4-1.918 4-4.285v-1.43C23 21.919 21.29 20 19 20s-4 1.919-4 4.285v1.43C15 28.082 16.71 30 19 30zm18 16V36s5.898-4.113 7-5c1.281-1.031 2.469-3.563 1-7-2.252 1.355-6 4-9 6h-7c-3.583 0-6 1.512-6 6v10m-2-13h-3c-3.583 0-6 1.512-6 6v7M6 35c2.29 0 4-1.918 4-4.285v-1.43C10 26.919 8.29 25 6 25s-4 1.919-4 4.285v1.43C2 33.082 3.71 35 6 35zm4 3H7c-3.583 0-6 1.512-6 6v2m26-10v10m18-22V0M33 5h-8l2 4-2 4h10v-2m10-8H35v8h10V3z"/></svg><svg fill="none" viewBox="0 0 48 54" id="logo" xmlns="http://www.w3.org/2000/svg"><g clip-path="url(#eclip0)" fill="#fff"><path d="M28.875 6.966L20.523.06 12.17 6.966-.023 1.036l10.79 18.542h19.512L41.07 1.035 28.875 6.966zm-3.396 20.845h-9.915L10.78 19.58H.747l10.032 17.24h19.488L40.3 19.58H30.267l-4.788 8.231zm0 17.239h-9.915l-4.785-8.23H.747l9.905 17.48H30.14L40.3 36.82H30.268l-4.789 8.23z"/><path d="M30.171 6.748L21.818-.16l-.354.435 8.353 6.908.354-.435zm1.384 13.112H11.883v-.562h19.35L41.944.893l.482.285L31.555 19.86zM14.524 6.712L2.33.782l-.243.506 12.194 5.93.243-.506zm2.232 0L4.563.782l-.243.506 12.194 5.93.242-.506zm2.233 0L6.795.782l-.243.506 12.194 5.93.243-.506zm2.232 0L9.028.782l-.243.506 12.194 5.93.242-.506z"/><path d="M16.921 27.667l-4.785-8.231-.481.284 4.785 8.231.481-.284zM31.544 37.1H11.895v-.562h19.328L40.93 19.86h-9.385l-4.708 8.092-.482-.285 4.87-8.37h10.68L31.544 37.1z"/><path d="M31.544 54.34h-9.905v-.563h9.584L40.93 37.1h-9.385l-4.708 8.094-.482-.286 4.87-8.37h10.68L31.544 54.34zM16.92 44.914l-4.786-8.234-.482.285 4.787 8.233.481-.284zM31.288 6.748L22.934-.16l-.354.435 8.354 6.908.354-.435zm1.383 13.112H13v-.562h19.35L43.062.893l.482.285L32.67 19.86z"/><path d="M18.037 27.667l-4.785-8.231-.481.284 4.785 8.231.481-.284zM32.66 37.1H13.011v-.562H32.34l9.706-16.677H32.66l-4.707 8.092-.482-.285 4.869-8.37h10.68L32.66 37.1z"/><path d="M32.66 54.34h-9.905v-.563h9.585L42.046 37.1H32.66l-4.707 8.094-.482-.286 4.869-8.37h10.68L32.66 54.34zm-14.624-9.426L13.25 36.68l-.481.285 4.786 8.233.481-.284zM32.404 6.748L24.05-.16l-.354.435 8.354 6.908.354-.435zm1.384 13.112H14.115v-.562h19.351L44.176.893l.483.285L33.788 19.86z"/><path d="M19.154 27.667l-4.786-8.231-.481.284 4.785 8.231.482-.284zM33.776 37.1H14.128v-.562h19.328l9.706-16.677h-9.386l-4.707 8.092-.482-.285 4.869-8.37h10.68L33.777 37.1z"/><path d="M33.776 54.34h-9.904v-.563h9.584L43.162 37.1h-9.386l-4.707 8.094-.482-.286 4.869-8.37h10.68L33.777 54.34zm-14.623-9.426l-4.786-8.234-.482.285 4.786 8.233.482-.284zM33.52 6.748L25.167-.16l-.355.435 8.354 6.907.354-.434zm1.384 13.112H15.232v-.562h19.35L45.293.893l.482.285L34.904 19.86z"/><path d="M20.27 27.667l-4.785-8.232-.482.285 4.785 8.231.482-.284zM34.893 37.1h-19.65v-.562h19.33l9.705-16.677h-9.385l-4.708 8.092-.482-.285 4.87-8.37h10.68L34.893 37.1z"/><path d="M34.893 54.34h-9.905v-.563h9.584L44.278 37.1h-9.385l-4.708 8.093-.482-.285 4.87-8.37h10.68L34.893 54.34zM20.27 44.914l-4.787-8.234-.482.285 4.786 8.233.482-.284zM34.63 6.75L26.278-.159l-.354.434 8.352 6.908.354-.435zm1.39 13.11H16.348v-.562h19.35L46.41.893l.483.285L36.02 19.86z"/><path d="M21.386 27.667l-4.785-8.231-.482.284 4.785 8.231.482-.284zM36.009 37.1H16.36v-.562h19.328l9.707-16.677h-9.386l-4.707 8.092-.483-.285 4.87-8.37h10.68L36.01 37.1z"/><path d="M36.009 54.34h-9.905v-.563h9.585L45.395 37.1h-9.386l-4.707 8.094-.483-.286 4.87-8.37h10.68L36.01 54.34zm-14.623-9.426l-4.787-8.234-.481.285 4.786 8.234.482-.285zM35.746 6.75L27.394-.159l-.354.434 8.352 6.908.354-.435zm1.39 13.11H17.464v-.562h19.35L47.527.893l.482.285L37.136 19.86z"/><path d="M22.502 27.667l-4.785-8.231-.481.284 4.785 8.231.481-.284zM37.125 37.1H17.477v-.562h19.328L46.51 19.86h-9.386l-4.707 8.092-.482-.285 4.869-8.37h10.68L37.125 37.1z"/><path d="M37.125 54.34h-9.904v-.563h9.584L46.51 37.1h-9.386l-4.707 8.094-.482-.286 4.869-8.37h10.68L37.126 54.34zm-14.623-9.426l-4.786-8.234-.482.285 4.786 8.234.482-.285zM35.396 7.183L27.12.34h-6.597v-.563h6.798l8.428 6.972-.353.434z"/><path d="M37.136 19.86H17.464v-.562h19.35L47.28 1.316h-6.21V.754h7.186L37.136 19.86z"/><path d="M22.502 27.667l-4.785-8.231-.481.284 4.785 8.231.481-.284zM37.125 37.1H10.78v-.562h26.026L46.51 19.86h-9.386l-4.707 8.092-.482-.285 4.869-8.37h10.68L37.125 37.1z"/><path d="M37.125 54.34h-9.904v-.563h9.584L46.51 37.1h-9.386l-4.707 8.094-.482-.286 4.869-8.37h10.68L37.125 54.34zm-14.623-9.426l-4.786-8.234-.482.285 4.786 8.234.482-.285zM23.21 7.22L11.076 1.315H-.023V.754L11.26.782l12.194 5.931-.243.506z"/></g><defs><clipPath id="eclip0"><path fill="#fff" d="M0 0h48v54H0z"/></clipPath></defs></svg><svg fill="none" viewBox="0 0 42 48" id="logo2" xmlns="http://www.w3.org/2000/svg"><g clip-path="url(#fclip0)" fill="#18A0FB"><path d="M25.265 6.193L17.957.053l-7.308 6.14L-.02.921l9.442 16.483h17.073L35.936.921l-10.67 5.272zm-2.971 18.528H13.62l-4.19-7.317H.653l8.778 15.324h17.052l8.78-15.324h-8.78l-4.189 7.317z"/><path d="M22.294 40.045H13.62l-4.19-7.317H.653L9.32 48.266h17.052l8.891-15.538h-8.779l-4.19 7.317zM26.4 5.998l-7.31-6.14-.31.387 7.31 6.14.31-.387zm1.21 11.656H10.399v-.5H27.33L36.701.794l.422.253-9.512 16.607zM12.708 5.966L2.038.695l-.211.45 10.669 5.271.212-.45zm1.954 0L3.992.695l-.212.45 10.67 5.271.212-.45zm1.953 0L5.945.695l-.212.45 10.67 5.271.212-.45zm1.954 0L7.899.695l-.212.45 10.67 5.271.212-.45z"/><path d="M14.806 24.593l-4.187-7.317-.421.253 4.187 7.316.421-.252zM27.6 32.978H10.409v-.5h16.913l8.492-14.824h-8.212l-4.12 7.193-.421-.253 4.26-7.44h9.346l-9.065 15.824z"/><path d="M27.6 48.302h-8.666v-.5h8.386l8.493-14.824h-8.212l-4.12 7.194-.421-.254 4.26-7.44h9.346l-9.065 15.824zm-12.795-8.378l-4.188-7.32-.421.253 4.188 7.32.421-.253zM27.377 5.998l-7.31-6.14-.31.387 7.31 6.14.31-.387zm1.21 11.656H11.374v-.5h16.932L37.678.794l.422.253-9.513 16.607z"/><path d="M15.783 24.593l-4.187-7.317-.422.253 4.187 7.316.422-.252zm12.795 8.385H11.384v-.5h16.912l8.493-14.824h-8.212l-4.12 7.193-.421-.253 4.26-7.44h9.346l-9.066 15.824z"/><path d="M28.578 48.302H19.91v-.5h8.386l8.493-14.824h-8.212l-4.12 7.194-.421-.254 4.26-7.44h9.346l-9.066 15.824zm-12.796-8.378l-4.188-7.32-.421.253 4.187 7.32.422-.253zM28.354 5.998l-7.31-6.14-.31.387 7.31 6.14.31-.387zm1.21 11.656H12.351v-.5h16.932L38.655.794l.422.253-9.513 16.607z"/><path d="M16.76 24.593l-4.188-7.317-.42.253 4.186 7.316.421-.252zm12.794 8.385H12.362v-.5h16.912l8.493-14.824h-8.213l-4.119 7.193-.421-.253 4.26-7.44h9.346l-9.066 15.824z"/><path d="M29.554 48.302h-8.666v-.5h8.386l8.493-14.824h-8.213l-4.119 7.194-.421-.254 4.26-7.44h9.346l-9.066 15.824zm-12.795-8.378l-4.188-7.32-.422.253 4.188 7.32.422-.253zM29.33 5.998l-7.31-6.14-.309.386 7.31 6.14.31-.386zm1.21 11.656H13.329v-.5H30.26L39.63.794l.422.253-9.512 16.607z"/><path d="M17.736 24.593l-4.187-7.317-.421.253 4.187 7.316.421-.252zm12.795 8.385H13.338v-.5h16.913l8.493-14.824H30.53l-4.119 7.193-.422-.253 4.26-7.44h9.346L30.53 32.978z"/><path d="M30.531 48.302h-8.667v-.5h8.387l8.493-14.824H30.53l-4.119 7.194-.422-.254 4.26-7.44h9.346L30.53 48.302zm-12.796-8.378l-4.188-7.32-.42.253 4.187 7.32.421-.253zM30.301 6L22.994-.14l-.31.386 7.307 6.14.31-.387zm1.217 11.654H14.304v-.5h16.932L40.608.794l.422.253-9.512 16.607z"/><path d="M18.713 24.593l-4.187-7.317-.421.253 4.186 7.316.422-.252zm12.795 8.385H14.315v-.5h16.913l8.492-14.824h-8.212l-4.12 7.193-.421-.253 4.26-7.44h9.346l-9.065 15.824z"/><path d="M31.508 48.302H22.84v-.5h8.386l8.493-14.824h-8.212l-4.12 7.194-.421-.254 4.26-7.44h9.346l-9.065 15.824zm-12.796-8.378l-4.188-7.32-.421.254 4.188 7.319.421-.253zM31.278 6L23.97-.14l-.31.386 7.308 6.14.31-.387zm1.216 11.654H15.281v-.5h16.932L41.585.794l.422.253-9.513 16.607z"/><path d="M19.69 24.593l-4.187-7.317-.422.253 4.187 7.316.421-.252zm12.794 8.385H15.292v-.5h16.912l8.493-14.824h-8.213l-4.118 7.193-.422-.253 4.26-7.44h9.346l-9.066 15.824z"/><path d="M32.484 48.302h-8.666v-.5h8.386l8.493-14.824h-8.213l-4.118 7.194-.422-.254 4.26-7.44h9.346l-9.066 15.824zm-12.795-8.378l-4.188-7.32-.421.254 4.188 7.319.421-.253zM30.972 6.385L23.73.302h-5.773v-.5h5.949l7.374 6.197-.308.386z"/><path d="M32.494 17.654H15.281v-.5h16.932L41.369 1.17h-5.434v-.5h6.288l-9.729 16.984z"/><path d="M19.69 24.593l-4.187-7.317-.422.253 4.187 7.316.422-.252zm12.795 8.385H9.43v-.5h22.773l8.493-14.824h-8.212l-4.12 7.193-.421-.253 4.26-7.44h9.346l-9.065 15.824z"/><path d="M32.485 48.302h-8.667v-.5h8.386l8.493-14.824h-8.212l-4.12 7.194-.421-.254 4.26-7.44h9.346l-9.065 15.824zm-12.796-8.378l-4.188-7.32-.421.254 4.188 7.319.421-.253zm.621-33.507L9.69 1.17H-.02v-.5l9.872.025 10.67 5.272-.213.45z"/></g><defs><clipPath id="fclip0"><path fill="#fff" d="M0 0h42v48H0z"/></clipPath></defs></svg><svg fill="none" viewBox="0 0 43 45" id="prevue-icon1" xmlns="http://www.w3.org/2000/svg"><path d="M33 44H10V12h18l5 5v27z"/><path d="M31 18h-4v-4M8 38H1V6h16"/><path d="M19 10V1h18l5 5v27h-7"/><path d="M40 7h-4V3M19 34h-5v6h5v-6zm10 1h-5v5h5v-5zm-5-4h-5v9h5v-9zm-10-9h9m-9-4h9m-9 8h6"/></svg><svg fill="none" viewBox="0 0 44 44" id="prevue-icon2" xmlns="http://www.w3.org/2000/svg"><path d="M6.004 26c0-.271-.969-.41-1.59-.41A3.41 3.41 0 001.004 29V7c0-1.884 1.526-3 3.41-3 .621 0 1.59.294 1.59 1v21zm9-18h-8"/><path d="M1.004 29c.012 3.133 2.472 4 5 4h36V8h-17m-5.024 3c1.67 0 3.024-1.344 3.024-3.002 0-1.658-1.354-3.002-3.024-3.002s-3.024 1.344-3.024 3.002C16.956 9.656 18.31 11 19.98 11z"/><path d="M28.485 16a11.06 11.06 0 01-8.506 3.966A11.06 11.06 0 0111.473 16m8.531-11V0m-1.091 10.804L13.004 26m8.086-15.207L27.004 26m-25 12h28c3.438 0 5.71 2.479 5.71 2.479S33.442 43 30.004 43h-28c-1.287-.911-1.39-4.017 0-5zm4 5v-5"/></svg><svg fill="none" viewBox="0 0 46 45" id="prevue-icon3" xmlns="http://www.w3.org/2000/svg"><path d="M7 11V5l4-4h25v43H7v-3"/><path d="M10 37V24c2.024-.717 4-2.804 4-5v-1c0-2.611-1.671-4.175-4-5v5H5v-5c-2.329.825-4 2.389-4 5v1c0 2.196 1.976 4.283 4 5v13a2 2 0 002 2h1a2 2 0 002-2zM9 7h4V3m5 13h13m-13 4h13m-13 4h13m-13 4h6m21-17.001v22C45.001 36.451 42.523 39 42.523 39S40.001 36.451 40 32.999v-22c.877-1.25 4.043-1.355 5 0zm-5 4h5"/></svg><svg fill="none" viewBox="0 0 46 46" id="prevue-icon4" xmlns="http://www.w3.org/2000/svg"><path d="M31 13v7l-1 2m-15-9v7l1 2m5-16V1h4v5"/><path d="M27 2c2.844.875 5 3.064 5 6v1l1 1v3H13v-3l1-1V8c0-2.936 2.156-5.125 5-6m26 19v21c0 1.533-.938 3-4 3H5c-3.063 0-4-1.467-4-3V21"/><path d="M7 21a3 3 0 10-3 3h38a3 3 0 10-3-3"/></svg><svg fill="none" viewBox="0 0 48 47" id="prevue-icon5" xmlns="http://www.w3.org/2000/svg"><path d="M20 34v-1c0-1.778-4.676-4-8.5-4C7.675 29 3 32.222 3 34v10m23 2l5-10H17l-3 7H8M21 3v22a2 2 0 002 2h2v4.297c0 .928 1.155 1.355 1.759.65L31 27h14a2 2 0 002-2V3a2 2 0 00-2-2H23a2 2 0 00-2 2zM0 46h47M12.996 12.368C14.801 13.083 16 14.784 16 17v2M6 19v-2c0-2.214 1.198-3.916 3-4.63M11 10v5m-7 4h14M7 21v1c0 2.367 1.669 4 4 4s4-1.633 4-4v-1"/><path d="M34.023 17a3.023 3.023 0 100-6.046 3.023 3.023 0 000 6.046z"/><path d="M41.023 13.977c0-.555-.071-1.093-.193-1.61l1.965-1.135-2-3.464L38.834 8.9a6.986 6.986 0 00-2.833-1.636V5h-4v2.276a6.978 6.978 0 00-2.805 1.64l-1.99-1.148-2 3.464 2.005 1.158a6.984 6.984 0 00-.188 1.587c0 .561.073 1.104.198 1.627l-2.015 1.164 2 3.464 2.021-1.166a6.999 6.999 0 002.774 1.612V23h4v-2.311a6.98 6.98 0 002.802-1.607l1.992 1.15 2-3.464-1.975-1.141c.127-.53.203-1.081.203-1.65z"/></svg><svg fill="none" viewBox="0 0 51 51" id="prevue-icon6" xmlns="http://www.w3.org/2000/svg"><path d="M36.648 36.648c6.248-6.248 6.09-16.537-.354-22.98-6.443-6.444-16.732-6.603-22.98-.354-6.249 6.248-6.09 16.537.353 22.98 6.444 6.444 16.733 6.602 22.98.354zm-24.04-2.83L6.95 39.475"/><path d="M14.022 18.262l7.07 7.071-6.363 6.364M6.95 11.191l4.244 4.242m6.364-4.949l-4.95-4.95M31.7 14.726l-4.95 4.95-7.071-7.07m19.799-5.658l-4.95 4.95m4.95 6.364l5.657-5.657M21.093 36.647l4.654-4.654 6.249-6.249 4.654-4.654M12.608 45.132l5.657-5.657m18.385-2.828l12.727 12.727"/></svg></svg>