<?xml version="1.0" encoding="utf-8"?><svg viewBox="0 0 62 70" xmlns="http://www.w3.org/2000/svg" xmlns:xlink="http://www.w3.org/1999/xlink"><style>:root>svg{display:none}:root>svg:target{display:block}</style><svg fill="none" viewBox="0 0 14 19" id="arrow-down" xmlns="http://www.w3.org/2000/svg"><path d="M13 11l-6 6m0 0l-6-6m6 6V1"/></svg><svg fill="none" viewBox="0 0 36 45" id="balun" xmlns="http://www.w3.org/2000/svg"><path d="M18 2C8.953 2 2 8.65 2 17.111c-.005 3.66.69 6.315 2.915 9.642C7.137 30.079 18 42 18 42s10.863-11.92 13.085-15.247c2.224-3.327 2.92-5.981 2.915-9.642C34 8.65 27.047 2 18 2z" fill="#fff" stroke="#174EFF" stroke-width="4" stroke-miterlimit="10"/><path d="M21.252 16.831L18 14l-3.252 2.831L10 14.401 14.202 22h7.596L26 14.4l-4.748 2.431z" fill="#174EFF"/></svg><svg fill="none" viewBox="0 0 36 45" id="balun2" xmlns="http://www.w3.org/2000/svg"><path d="M18 2C8.953 2 2 8.65 2 17.111c-.005 3.66.69 6.315 2.915 9.642C7.137 30.079 18 42 18 42s10.863-11.92 13.085-15.247c2.224-3.327 2.92-5.981 2.915-9.642C34 8.65 27.047 2 18 2z" fill="#174EFF" stroke="#174EFF" stroke-width="4" stroke-miterlimit="10"/><path d="M21.252 16.831L18 14l-3.252 2.831L10 14.401 14.202 22h7.596L26 14.4l-4.748 2.431z" fill="#fff"/></svg><svg viewBox="0 0 16 16" id="facebook" xmlns="http://www.w3.org/2000/svg"><g clip-path="url(#dclip0)"><path d="M5.88 3.099v2.203H4.268v2.693H5.88V16h3.315V7.995h2.225s.208-1.291.309-2.703H9.208V3.45c0-.275.362-.646.72-.646h1.805V0H9.277C5.8 0 5.881 2.696 5.881 3.099z"/></g><defs><clipPath id="dclip0"><path fill="#fff" d="M0 0h16v16H0z"/></clipPath></defs></svg><svg fill="none" viewBox="0 0 46 46" id="info-icon1" xmlns="http://www.w3.org/2000/svg"><path d="M38.047 6.95A21.943 21.943 0 0145 23c0 12.15-9.85 22-22 22S1 35.15 1 23 10.85 1 23 1c2.825 0 5.525.532 8.007 1.502"/><path d="M10.003 32.334C12.908 36.371 17.646 39 23 39c8.837 0 16-7.163 16-16S31.837 7 23 7 7 14.163 7 23v2m31-14V7h4"/><path d="M10 22l-3 3-3-3m19 11c5.523 0 10-4.477 10-10s-4.477-10-10-10-10 4.477-10 10 4.477 10 10 10z"/><path d="M28 18l-5 6-4-3"/></svg><svg fill="none" viewBox="0 0 48 42" id="info-icon2" xmlns="http://www.w3.org/2000/svg"><path d="M7 1h28v6l11 19v2M11 10c5.052 0 9.315 3.836 9.925 16.02M19 10c5.052 0 9.315 3.924 9.925 16.107"/><path d="M11 10h15c5.052 0 9.479 3.917 10 17M16 8V5m8 3V5M10 5h21v4M1 19V1h6v6l9 19v3m2.945-2.724a4.506 4.506 0 015.958 3.29M7 41h4m4 0h11"/><path d="M24.401 28.252a4 4 0 017.505.881l-.002-.001A4.994 4.994 0 0136 27m0 0a4 4 0 014 4h7m-4 6h-8a3 3 0 10-6 0h-4M2 35h10a3 3 0 116 0h3"/></svg><svg fill="none" viewBox="0 0 42 48" id="info-icon3" xmlns="http://www.w3.org/2000/svg"><path d="M14 32a3 3 0 100-6 3 3 0 000 6zM9 17H7.667l-1.833-1.667M29 18h1.167l1.666-1H38V9"/><path d="M40.234 26.417L37.667 29H34v-1.843L31.091 24H23v-1.5c0-1.841 2.159-3.5 4-3.5V7m-7 20v5h3.054L25 34.539V41h3.188L31 37.62v-7.787L27.667 27H23"/><path d="M38.5 19.311C40.093 22.182 41 24.485 41 28c0 11.046-8.954 19-20 19S1 39.046 1 28c0-6.316 2.928-10.948 7.5-14.613m20.836-2.573a19.988 19.988 0 014.166 2.574M16 9.63a20.21 20.21 0 018.332-.354"/><path d="M1.833 25.667L5.166 29H8v-3.333L11 22h2v-3c0-1.381-.619-2-2-2V9m9 18V17m-8.75 27.5L13 42.833v-1.349l1-.984V32m-4 1H9a2 2 0 00-2 2v7m13-24a3 3 0 100-6 3 3 0 000 6zm-9-9a3 3 0 100-6 3 3 0 000 6zm16-2a3 3 0 100-6 3 3 0 000 6zm11 3a3 3 0 100-6 3 3 0 000 6z"/></svg><svg fill="none" viewBox="0 0 47 46" id="info-icon4" xmlns="http://www.w3.org/2000/svg"><path d="M32 27c2.29 0 4-1.918 4-4.285v-1.43C36 18.919 34.29 17 32 17s-4 1.919-4 4.285v1.43C28 25.082 29.71 27 32 27zm-13 3c2.29 0 4-1.918 4-4.285v-1.43C23 21.919 21.29 20 19 20s-4 1.919-4 4.285v1.43C15 28.082 16.71 30 19 30zm18 16V36s5.898-4.113 7-5c1.281-1.031 2.469-3.563 1-7-2.252 1.355-6 4-9 6h-7c-3.583 0-6 1.512-6 6v10m-2-13h-3c-3.583 0-6 1.512-6 6v7M6 35c2.29 0 4-1.918 4-4.285v-1.43C10 26.919 8.29 25 6 25s-4 1.919-4 4.285v1.43C2 33.082 3.71 35 6 35zm4 3H7c-3.583 0-6 1.512-6 6v2m26-10v10m18-22V0M33 5h-8l2 4-2 4h10v-2m10-8H35v8h10V3z"/></svg><svg viewBox="0 0 16 16" id="instagram" xmlns="http://www.w3.org/2000/svg"><path d="M11.233 0H4.766A4.772 4.772 0 000 4.766v6.467A4.772 4.772 0 004.766 16h6.467A4.772 4.772 0 0016 11.233V4.766A4.772 4.772 0 0011.233 0zm3.157 11.233a3.157 3.157 0 01-3.157 3.157H4.766a3.157 3.157 0 01-3.156-3.157V4.766A3.157 3.157 0 014.766 1.61h6.467a3.157 3.157 0 013.157 3.156v6.467z"/><path d="M8 3.862A4.143 4.143 0 003.862 8 4.143 4.143 0 008 12.138 4.143 4.143 0 0012.138 8 4.143 4.143 0 008 3.862zm0 6.667A2.529 2.529 0 118 5.47a2.529 2.529 0 010 5.058zm4.146-5.644a.992.992 0 100-1.984.992.992 0 000 1.984z"/></svg><svg fill="none" viewBox="0 0 48 54" id="logo" xmlns="http://www.w3.org/2000/svg"><g clip-path="url(#jclip0)" fill="#fff"><path d="M28.875 6.966L20.523.06 12.17 6.966-.023 1.036l10.79 18.542h19.512L41.07 1.035 28.875 6.966zm-3.396 20.845h-9.915L10.78 19.58H.747l10.032 17.24h19.488L40.3 19.58H30.267l-4.788 8.231zm0 17.239h-9.915l-4.785-8.23H.747l9.905 17.48H30.14L40.3 36.82H30.268l-4.789 8.23z"/><path d="M30.171 6.748L21.818-.16l-.354.435 8.353 6.908.354-.435zm1.384 13.112H11.883v-.562h19.35L41.944.893l.482.285L31.555 19.86zM14.524 6.712L2.33.782l-.243.506 12.194 5.93.243-.506zm2.232 0L4.563.782l-.243.506 12.194 5.93.242-.506zm2.233 0L6.795.782l-.243.506 12.194 5.93.243-.506zm2.232 0L9.028.782l-.243.506 12.194 5.93.242-.506z"/><path d="M16.921 27.667l-4.785-8.231-.481.284 4.785 8.231.481-.284zM31.544 37.1H11.895v-.562h19.328L40.93 19.86h-9.385l-4.708 8.092-.482-.285 4.87-8.37h10.68L31.544 37.1z"/><path d="M31.544 54.34h-9.905v-.563h9.584L40.93 37.1h-9.385l-4.708 8.094-.482-.286 4.87-8.37h10.68L31.544 54.34zM16.92 44.914l-4.786-8.234-.482.285 4.787 8.233.481-.284zM31.288 6.748L22.934-.16l-.354.435 8.354 6.908.354-.435zm1.383 13.112H13v-.562h19.35L43.062.893l.482.285L32.67 19.86z"/><path d="M18.037 27.667l-4.785-8.231-.481.284 4.785 8.231.481-.284zM32.66 37.1H13.011v-.562H32.34l9.706-16.677H32.66l-4.707 8.092-.482-.285 4.869-8.37h10.68L32.66 37.1z"/><path d="M32.66 54.34h-9.905v-.563h9.585L42.046 37.1H32.66l-4.707 8.094-.482-.286 4.869-8.37h10.68L32.66 54.34zm-14.624-9.426L13.25 36.68l-.481.285 4.786 8.233.481-.284zM32.404 6.748L24.05-.16l-.354.435 8.354 6.908.354-.435zm1.384 13.112H14.115v-.562h19.351L44.176.893l.483.285L33.788 19.86z"/><path d="M19.154 27.667l-4.786-8.231-.481.284 4.785 8.231.482-.284zM33.776 37.1H14.128v-.562h19.328l9.706-16.677h-9.386l-4.707 8.092-.482-.285 4.869-8.37h10.68L33.777 37.1z"/><path d="M33.776 54.34h-9.904v-.563h9.584L43.162 37.1h-9.386l-4.707 8.094-.482-.286 4.869-8.37h10.68L33.777 54.34zm-14.623-9.426l-4.786-8.234-.482.285 4.786 8.233.482-.284zM33.52 6.748L25.167-.16l-.355.435 8.354 6.907.354-.434zm1.384 13.112H15.232v-.562h19.35L45.293.893l.482.285L34.904 19.86z"/><path d="M20.27 27.667l-4.785-8.232-.482.285 4.785 8.231.482-.284zM34.893 37.1h-19.65v-.562h19.33l9.705-16.677h-9.385l-4.708 8.092-.482-.285 4.87-8.37h10.68L34.893 37.1z"/><path d="M34.893 54.34h-9.905v-.563h9.584L44.278 37.1h-9.385l-4.708 8.093-.482-.285 4.87-8.37h10.68L34.893 54.34zM20.27 44.914l-4.787-8.234-.482.285 4.786 8.233.482-.284zM34.63 6.75L26.278-.159l-.354.434 8.352 6.908.354-.435zm1.39 13.11H16.348v-.562h19.35L46.41.893l.483.285L36.02 19.86z"/><path d="M21.386 27.667l-4.785-8.231-.482.284 4.785 8.231.482-.284zM36.009 37.1H16.36v-.562h19.328l9.707-16.677h-9.386l-4.707 8.092-.483-.285 4.87-8.37h10.68L36.01 37.1z"/><path d="M36.009 54.34h-9.905v-.563h9.585L45.395 37.1h-9.386l-4.707 8.094-.483-.286 4.87-8.37h10.68L36.01 54.34zm-14.623-9.426l-4.787-8.234-.481.285 4.786 8.234.482-.285zM35.746 6.75L27.394-.159l-.354.434 8.352 6.908.354-.435zm1.39 13.11H17.464v-.562h19.35L47.527.893l.482.285L37.136 19.86z"/><path d="M22.502 27.667l-4.785-8.231-.481.284 4.785 8.231.481-.284zM37.125 37.1H17.477v-.562h19.328L46.51 19.86h-9.386l-4.707 8.092-.482-.285 4.869-8.37h10.68L37.125 37.1z"/><path d="M37.125 54.34h-9.904v-.563h9.584L46.51 37.1h-9.386l-4.707 8.094-.482-.286 4.869-8.37h10.68L37.126 54.34zm-14.623-9.426l-4.786-8.234-.482.285 4.786 8.234.482-.285zM35.396 7.183L27.12.34h-6.597v-.563h6.798l8.428 6.972-.353.434z"/><path d="M37.136 19.86H17.464v-.562h19.35L47.28 1.316h-6.21V.754h7.186L37.136 19.86z"/><path d="M22.502 27.667l-4.785-8.231-.481.284 4.785 8.231.481-.284zM37.125 37.1H10.78v-.562h26.026L46.51 19.86h-9.386l-4.707 8.092-.482-.285 4.869-8.37h10.68L37.125 37.1z"/><path d="M37.125 54.34h-9.904v-.563h9.584L46.51 37.1h-9.386l-4.707 8.094-.482-.286 4.869-8.37h10.68L37.125 54.34zm-14.623-9.426l-4.786-8.234-.482.285 4.786 8.234.482-.285zM23.21 7.22L11.076 1.315H-.023V.754L11.26.782l12.194 5.931-.243.506z"/></g><defs><clipPath id="jclip0"><path fill="#fff" d="M0 0h48v54H0z"/></clipPath></defs></svg><svg fill="none" viewBox="0 0 42 48" id="logo2" xmlns="http://www.w3.org/2000/svg"><g clip-path="url(#kclip0)" fill="#18A0FB"><path d="M25.265 6.193L17.957.053l-7.308 6.14L-.02.921l9.442 16.483h17.073L35.936.921l-10.67 5.272zm-2.971 18.528H13.62l-4.19-7.317H.653l8.778 15.324h17.052l8.78-15.324h-8.78l-4.189 7.317z"/><path d="M22.294 40.045H13.62l-4.19-7.317H.653L9.32 48.266h17.052l8.891-15.538h-8.779l-4.19 7.317zM26.4 5.998l-7.31-6.14-.31.387 7.31 6.14.31-.387zm1.21 11.656H10.399v-.5H27.33L36.701.794l.422.253-9.512 16.607zM12.708 5.966L2.038.695l-.211.45 10.669 5.271.212-.45zm1.954 0L3.992.695l-.212.45 10.67 5.271.212-.45zm1.953 0L5.945.695l-.212.45 10.67 5.271.212-.45zm1.954 0L7.899.695l-.212.45 10.67 5.271.212-.45z"/><path d="M14.806 24.593l-4.187-7.317-.421.253 4.187 7.316.421-.252zM27.6 32.978H10.409v-.5h16.913l8.492-14.824h-8.212l-4.12 7.193-.421-.253 4.26-7.44h9.346l-9.065 15.824z"/><path d="M27.6 48.302h-8.666v-.5h8.386l8.493-14.824h-8.212l-4.12 7.194-.421-.254 4.26-7.44h9.346l-9.065 15.824zm-12.795-8.378l-4.188-7.32-.421.253 4.188 7.32.421-.253zM27.377 5.998l-7.31-6.14-.31.387 7.31 6.14.31-.387zm1.21 11.656H11.374v-.5h16.932L37.678.794l.422.253-9.513 16.607z"/><path d="M15.783 24.593l-4.187-7.317-.422.253 4.187 7.316.422-.252zm12.795 8.385H11.384v-.5h16.912l8.493-14.824h-8.212l-4.12 7.193-.421-.253 4.26-7.44h9.346l-9.066 15.824z"/><path d="M28.578 48.302H19.91v-.5h8.386l8.493-14.824h-8.212l-4.12 7.194-.421-.254 4.26-7.44h9.346l-9.066 15.824zm-12.796-8.378l-4.188-7.32-.421.253 4.187 7.32.422-.253zM28.354 5.998l-7.31-6.14-.31.387 7.31 6.14.31-.387zm1.21 11.656H12.351v-.5h16.932L38.655.794l.422.253-9.513 16.607z"/><path d="M16.76 24.593l-4.188-7.317-.42.253 4.186 7.316.421-.252zm12.794 8.385H12.362v-.5h16.912l8.493-14.824h-8.213l-4.119 7.193-.421-.253 4.26-7.44h9.346l-9.066 15.824z"/><path d="M29.554 48.302h-8.666v-.5h8.386l8.493-14.824h-8.213l-4.119 7.194-.421-.254 4.26-7.44h9.346l-9.066 15.824zm-12.795-8.378l-4.188-7.32-.422.253 4.188 7.32.422-.253zM29.33 5.998l-7.31-6.14-.309.386 7.31 6.14.31-.386zm1.21 11.656H13.329v-.5H30.26L39.63.794l.422.253-9.512 16.607z"/><path d="M17.736 24.593l-4.187-7.317-.421.253 4.187 7.316.421-.252zm12.795 8.385H13.338v-.5h16.913l8.493-14.824H30.53l-4.119 7.193-.422-.253 4.26-7.44h9.346L30.53 32.978z"/><path d="M30.531 48.302h-8.667v-.5h8.387l8.493-14.824H30.53l-4.119 7.194-.422-.254 4.26-7.44h9.346L30.53 48.302zm-12.796-8.378l-4.188-7.32-.42.253 4.187 7.32.421-.253zM30.301 6L22.994-.14l-.31.386 7.307 6.14.31-.387zm1.217 11.654H14.304v-.5h16.932L40.608.794l.422.253-9.512 16.607z"/><path d="M18.713 24.593l-4.187-7.317-.421.253 4.186 7.316.422-.252zm12.795 8.385H14.315v-.5h16.913l8.492-14.824h-8.212l-4.12 7.193-.421-.253 4.26-7.44h9.346l-9.065 15.824z"/><path d="M31.508 48.302H22.84v-.5h8.386l8.493-14.824h-8.212l-4.12 7.194-.421-.254 4.26-7.44h9.346l-9.065 15.824zm-12.796-8.378l-4.188-7.32-.421.254 4.188 7.319.421-.253zM31.278 6L23.97-.14l-.31.386 7.308 6.14.31-.387zm1.216 11.654H15.281v-.5h16.932L41.585.794l.422.253-9.513 16.607z"/><path d="M19.69 24.593l-4.187-7.317-.422.253 4.187 7.316.421-.252zm12.794 8.385H15.292v-.5h16.912l8.493-14.824h-8.213l-4.118 7.193-.422-.253 4.26-7.44h9.346l-9.066 15.824z"/><path d="M32.484 48.302h-8.666v-.5h8.386l8.493-14.824h-8.213l-4.118 7.194-.422-.254 4.26-7.44h9.346l-9.066 15.824zm-12.795-8.378l-4.188-7.32-.421.254 4.188 7.319.421-.253zM30.972 6.385L23.73.302h-5.773v-.5h5.949l7.374 6.197-.308.386z"/><path d="M32.494 17.654H15.281v-.5h16.932L41.369 1.17h-5.434v-.5h6.288l-9.729 16.984z"/><path d="M19.69 24.593l-4.187-7.317-.422.253 4.187 7.316.422-.252zm12.795 8.385H9.43v-.5h22.773l8.493-14.824h-8.212l-4.12 7.193-.421-.253 4.26-7.44h9.346l-9.065 15.824z"/><path d="M32.485 48.302h-8.667v-.5h8.386l8.493-14.824h-8.212l-4.12 7.194-.421-.254 4.26-7.44h9.346l-9.065 15.824zm-12.796-8.378l-4.188-7.32-.421.254 4.188 7.319.421-.253zm.621-33.507L9.69 1.17H-.02v-.5l9.872.025 10.67 5.272-.213.45z"/></g><defs><clipPath id="kclip0"><path fill="#fff" d="M0 0h42v48H0z"/></clipPath></defs></svg><svg fill="none" viewBox="0 0 62 70" id="logo3" xmlns="http://www.w3.org/2000/svg"><g clip-path="url(#lclip0)" fill="#D9F4FF"><path d="M37.297 9.03L26.509.076 15.72 9.03-.03 1.342l13.937 24.037H39.11L53.05 1.343 37.297 9.03zM32.91 36.051H20.105l-6.181-10.67H.965l12.958 22.347h25.172l12.96-22.347h-12.96L32.91 36.05z"/><path d="M32.91 58.4H20.105l-6.181-10.672H.965l12.793 22.66H38.93l13.126-22.66h-12.96L32.911 58.4zm6.061-49.653L28.181-.207l-.457.564 10.79 8.954.457-.564zm1.787 16.998h-25.41v-.729h24.995L54.178 1.158l.623.369-14.043 24.218zM18.76 8.7L3.01 1.013l-.314.657 15.75 7.687.314-.657zm2.883 0L5.893 1.013l-.313.657 15.75 7.687.313-.657zm2.884 0L8.777 1.013l-.313.657 15.75 7.687.313-.657zm2.883 0L11.66 1.013l-.313.657 15.75 7.687.314-.657z"/><path d="M21.857 35.864l-6.181-10.67-.622.369 6.18 10.67.622-.369zm18.887 12.229h-25.38v-.73H40.33l12.537-21.618H40.744l-6.08 10.49-.623-.369 6.29-10.85h13.795L40.744 48.093z"/><path d="M40.744 70.44H27.95v-.729h12.38l12.537-21.618H40.744l-6.08 10.491-.623-.37 6.29-10.85h13.795L40.744 70.44zM21.855 58.222l-6.182-10.674-.622.369 6.182 10.673.622-.368zM40.413 8.747L29.623-.207l-.457.564 10.79 8.954.457-.564zM42.2 25.745H16.79v-.729h24.995L55.62 1.158l.623.369L42.2 25.745z"/><path d="M23.298 35.864l-6.18-10.67-.623.369 6.181 10.67.622-.369zm18.888 12.229h-25.38v-.73h24.966L54.31 25.746H42.186l-6.08 10.49-.623-.369 6.29-10.85h13.795L42.186 48.093z"/><path d="M42.186 70.44H29.392v-.729h12.38L54.31 48.093H42.186l-6.08 10.491-.623-.37 6.29-10.85h13.795L42.186 70.44zM23.297 58.222l-6.182-10.674-.622.369 6.182 10.674.622-.369zM41.855 8.747L31.065-.207l-.457.564 10.79 8.954.457-.564zm1.787 16.998h-25.41v-.729h24.995L57.062 1.158l.623.369-14.043 24.218z"/><path d="M24.74 35.864l-6.18-10.67-.623.369 6.181 10.67.622-.369zm18.888 12.229h-25.38v-.73h24.966l12.537-21.618H43.628l-6.08 10.49-.623-.369 6.289-10.85H57.01L43.628 48.093z"/><path d="M43.628 70.44H30.834v-.729h12.38l12.537-21.618H43.628l-6.08 10.491-.623-.37 6.289-10.85H57.01L43.628 70.44zM24.739 58.222l-6.182-10.674-.622.369 6.182 10.674.622-.369zM43.297 8.747L32.507-.207l-.457.563 10.79 8.955.457-.564zm1.787 16.998h-25.41v-.729H44.67L58.504 1.158l.622.369-14.042 24.218z"/><path d="M26.182 35.864l-6.18-10.67-.623.369 6.18 10.67.623-.369zM45.07 48.093H19.69v-.73h24.966l12.537-21.618H45.07l-6.08 10.49-.623-.369 6.289-10.85h13.796L45.07 48.093z"/><path d="M45.07 70.44H32.276v-.729h12.38l12.537-21.618H45.07l-6.08 10.49-.623-.37 6.289-10.85h13.796L45.07 70.44zM26.18 58.222L20 47.548l-.622.369 6.182 10.674.622-.369zM44.73 8.75L33.944-.206l-.458.563 10.788 8.955.457-.564zm1.796 16.996h-25.41v-.73h24.995L59.945 1.159l.623.37-14.042 24.218z"/><path d="M27.624 35.864l-6.181-10.67-.622.37L27 36.233l.623-.37zm18.887 12.229h-25.38v-.73h24.967l12.537-21.617H46.512l-6.08 10.49-.624-.37 6.29-10.85h13.796L46.51 48.093z"/><path d="M46.511 70.44H33.718v-.728h12.38l12.537-21.619H46.512l-6.08 10.491-.624-.37 6.29-10.85h13.796L46.51 70.441zM27.623 58.222L21.44 47.55l-.622.368L27 58.591l.622-.369zM46.172 8.75L35.385-.206l-.458.563 10.788 8.955.457-.564zm1.796 16.996h-25.41v-.73h24.995L61.387 1.159l.623.37-14.042 24.218z"/><path d="M29.066 35.864l-6.181-10.67-.622.37 6.18 10.67.622-.37zm18.887 12.229h-25.38v-.73H47.54l12.537-21.617H47.953l-6.08 10.49-.623-.37 6.29-10.85h13.795L47.953 48.093z"/><path d="M47.953 70.44H35.16v-.728h12.38l12.537-21.619H47.953l-6.08 10.491-.623-.37 6.29-10.85h13.795L47.953 70.441zM29.065 58.222L22.883 47.55l-.622.368 6.182 10.674.622-.369zM45.72 9.311L35.03.441h-8.521v-.73h8.78l10.887 9.037-.456.563z"/><path d="M47.968 25.745h-25.41v-.729h24.995l13.516-23.31h-8.022V.977h9.282L47.968 25.745z"/><path d="M29.066 35.864l-6.181-10.67-.622.369 6.18 10.67.622-.369zm18.887 12.229h-34.03v-.73H47.54l12.537-21.618H47.953l-6.08 10.49-.623-.369 6.29-10.85h13.795L47.953 48.093z"/><path d="M47.953 70.44H35.16v-.729h12.38l12.537-21.618H47.953l-6.08 10.491-.623-.37 6.29-10.85h13.795L47.953 70.44zM29.065 58.222L22.883 47.55l-.622.368 6.182 10.674.622-.369zm.915-48.864L14.306 1.706H-.03V.977l14.574.037 15.75 7.688-.313.656z"/></g><defs><clipPath id="lclip0"><path fill="#fff" d="M0 0h62v70H0z"/></clipPath></defs></svg><svg fill="none" viewBox="0 0 43 45" id="prevue-icon1" xmlns="http://www.w3.org/2000/svg"><path d="M33 44H10V12h18l5 5v27z"/><path d="M31 18h-4v-4M8 38H1V6h16"/><path d="M19 10V1h18l5 5v27h-7"/><path d="M40 7h-4V3M19 34h-5v6h5v-6zm10 1h-5v5h5v-5zm-5-4h-5v9h5v-9zm-10-9h9m-9-4h9m-9 8h6"/></svg><svg fill="none" viewBox="0 0 44 44" id="prevue-icon2" xmlns="http://www.w3.org/2000/svg"><path d="M6.004 26c0-.271-.969-.41-1.59-.41A3.41 3.41 0 001.004 29V7c0-1.884 1.526-3 3.41-3 .621 0 1.59.294 1.59 1v21zm9-18h-8"/><path d="M1.004 29c.012 3.133 2.472 4 5 4h36V8h-17m-5.024 3c1.67 0 3.024-1.344 3.024-3.002 0-1.658-1.354-3.002-3.024-3.002s-3.024 1.344-3.024 3.002C16.956 9.656 18.31 11 19.98 11z"/><path d="M28.485 16a11.06 11.06 0 01-8.506 3.966A11.06 11.06 0 0111.473 16m8.531-11V0m-1.091 10.804L13.004 26m8.086-15.207L27.004 26m-25 12h28c3.438 0 5.71 2.479 5.71 2.479S33.442 43 30.004 43h-28c-1.287-.911-1.39-4.017 0-5zm4 5v-5"/></svg><svg fill="none" viewBox="0 0 46 45" id="prevue-icon3" xmlns="http://www.w3.org/2000/svg"><path d="M7 11V5l4-4h25v43H7v-3"/><path d="M10 37V24c2.024-.717 4-2.804 4-5v-1c0-2.611-1.671-4.175-4-5v5H5v-5c-2.329.825-4 2.389-4 5v1c0 2.196 1.976 4.283 4 5v13a2 2 0 002 2h1a2 2 0 002-2zM9 7h4V3m5 13h13m-13 4h13m-13 4h13m-13 4h6m21-17.001v22C45.001 36.451 42.523 39 42.523 39S40.001 36.451 40 32.999v-22c.877-1.25 4.043-1.355 5 0zm-5 4h5"/></svg><svg fill="none" viewBox="0 0 46 46" id="prevue-icon4" xmlns="http://www.w3.org/2000/svg"><path d="M31 13v7l-1 2m-15-9v7l1 2m5-16V1h4v5"/><path d="M27 2c2.844.875 5 3.064 5 6v1l1 1v3H13v-3l1-1V8c0-2.936 2.156-5.125 5-6m26 19v21c0 1.533-.938 3-4 3H5c-3.063 0-4-1.467-4-3V21"/><path d="M7 21a3 3 0 10-3 3h38a3 3 0 10-3-3"/></svg><svg fill="none" viewBox="0 0 48 47" id="prevue-icon5" xmlns="http://www.w3.org/2000/svg"><path d="M20 34v-1c0-1.778-4.676-4-8.5-4C7.675 29 3 32.222 3 34v10m23 2l5-10H17l-3 7H8M21 3v22a2 2 0 002 2h2v4.297c0 .928 1.155 1.355 1.759.65L31 27h14a2 2 0 002-2V3a2 2 0 00-2-2H23a2 2 0 00-2 2zM0 46h47M12.996 12.368C14.801 13.083 16 14.784 16 17v2M6 19v-2c0-2.214 1.198-3.916 3-4.63M11 10v5m-7 4h14M7 21v1c0 2.367 1.669 4 4 4s4-1.633 4-4v-1"/><path d="M34.023 17a3.023 3.023 0 100-6.046 3.023 3.023 0 000 6.046z"/><path d="M41.023 13.977c0-.555-.071-1.093-.193-1.61l1.965-1.135-2-3.464L38.834 8.9a6.986 6.986 0 00-2.833-1.636V5h-4v2.276a6.978 6.978 0 00-2.805 1.64l-1.99-1.148-2 3.464 2.005 1.158a6.984 6.984 0 00-.188 1.587c0 .561.073 1.104.198 1.627l-2.015 1.164 2 3.464 2.021-1.166a6.999 6.999 0 002.774 1.612V23h4v-2.311a6.98 6.98 0 002.802-1.607l1.992 1.15 2-3.464-1.975-1.141c.127-.53.203-1.081.203-1.65z"/></svg><svg fill="none" viewBox="0 0 51 51" id="prevue-icon6" xmlns="http://www.w3.org/2000/svg"><path d="M36.648 36.648c6.248-6.248 6.09-16.537-.354-22.98-6.443-6.444-16.732-6.603-22.98-.354-6.249 6.248-6.09 16.537.353 22.98 6.444 6.444 16.733 6.602 22.98.354zm-24.04-2.83L6.95 39.475"/><path d="M14.022 18.262l7.07 7.071-6.363 6.364M6.95 11.191l4.244 4.242m6.364-4.949l-4.95-4.95M31.7 14.726l-4.95 4.95-7.071-7.07m19.799-5.658l-4.95 4.95m4.95 6.364l5.657-5.657M21.093 36.647l4.654-4.654 6.249-6.249 4.654-4.654M12.608 45.132l5.657-5.657m18.385-2.828l12.727 12.727"/></svg><svg fill="none" viewBox="0 0 11 18" id="short-arrow" xmlns="http://www.w3.org/2000/svg"><path d="M1 1l8 8-8 8"/></svg><svg viewBox="0 0 16 16" id="tel" xmlns="http://www.w3.org/2000/svg"><path d="M5.024 10.985C9.1 15.06 12.994 15.925 14.43 16A10.532 10.532 0 0016 12.55c-.993-.967-2.439-1.951-3.765-2.51l-1.57 1.57c-.536-.142-2.004-.75-3.765-2.51-1.756-1.756-2.363-3.23-2.51-3.765l1.57-1.57C5.406 2.439 4.417.993 3.45 0 2.457.262 1.348.647 0 1.57c.089 1.441.949 5.335 5.024 9.415z"/></svg><svg fill="none" viewBox="0 0 40 40" id="vg" xmlns="http://www.w3.org/2000/svg"><rect width="40" height="40" rx="20" fill="#18A0FB"/><path d="M12.354 19.366s.62-.069 1.795-2.055c0 0 .027-.035.07-.102.584 2.716 3.39 2.277 3.39 2.277l.268-1.053c-1.884.41-1.909-1.824-1.909-1.824l2.888 1.001c.256-.282.42-.634.488-1.012.028.905-.054 1.88-.316 2.888 0 0 1.745-.669 2.953.496 0 0-.116-2.023-.72-4.114.347-.214 1.087-.529 1.218.587.171 1.464 2.129 3.493 3.964.976 0 0-1.15.667-1.786-.72-.596-1.297-.827-2.998-2.436-2.498.921-.734 1.783-1.92.698-3.024-1.447-1.472-3.702.285-4.1.616-.26-.17-.54-.302-.844-.385 0 0 .93 1.603 1.26 3.918a2.705 2.705 0 00-1.333-1.503c-.81-.42-1.886-.344-2.683.217.168-1.401.129-3.278-.45-5.68l-2.806 1.473s2.186 4.383.196 7.295c0 0-2.546-1.61-.947-4.864l-1.631-.308s-.841.996-.734 2.56c.123 1.808 1.325 4.255 3.507 4.838zm9.464-7.207c.636.82-.316 1.555-1.142 1.714 0 0-.152-.968-.702-1.599 0 0 1.208-.936 1.844-.115zm-4.188 2.42c.528.188.817.813.716 1.467l-2.112-.806c.306-.555.88-.846 1.396-.662zm10.127 2.286h.035c-.313 1.13-.872 1.775-1.569 2.244-1.273.856-2.937.377-2.937.377.375 1.095 4.47 3.15 5.743-.48 1.273-3.63-1.027-6.113-1.027-6.113.118 1.502.071 2.64-.103 3.52-.336.051-2.117.157-1.317-3.589l-1.827-.719s-.914 5.137 3.002 4.76zm1.321 5.292c-2.17-.548-3.557.154-3.557.154s1.306.428 1.534 2.637c.229 2.21-2.072 3.733-2.072 3.733s2.545.497 4.454-.343c1.91-.838 1.958-2.893 1.958-3.184 0-.291-.147-2.449-2.317-2.997zm-.549 4.659c-.038.002-.076 0-.114-.002.332-.359.535-.924.51-1.553-.032-.767-.394-1.41-.886-1.685a1.2 1.2 0 01.355-.074c.765-.034 1.416.68 1.453 1.595.037.915-.553 1.685-1.318 1.719zm-2.477-1.604c0-1.659-1.299-3.004-2.9-3.004a2.82 2.82 0 00-.466.04c-.42-1.078-1.428-1.838-2.606-1.838-1.432 0-2.613 1.123-2.79 2.576-1.242.24-2.586 1.068-3.035 3.409l1.493.36s.298-.872 1.097-1.656l.03.089s.195 2.569-1.787 2.877c-1.983.308-3.182-1.978-2.57-3.493.612-1.516 1.86-1.114 1.86-1.114l2.414-2.38-.905-.394c-2.554-.942-5.841.805-6.037 4.632-.196 3.827 3.891 6.165 6.73 4.213 1.538-1.057 1.84-2.612 1.795-3.815a2.715 2.715 0 002.07.579c.42 1.124 1.473 1.923 2.707 1.923 1.601 0 2.9-1.345 2.9-3.004zm-5.348-1.61a3.727 3.727 0 00-.08.139 1 1 0 01-.825.445.985.985 0 01-.652-.248c.203-.033.415-.054.64-.06l-.074-.77s-.367-.117-.913-.175c.084-.499.498-.879.998-.879.562 0 1.016.477 1.016 1.066 0 .174-.04.337-.11.482zm1.823 2.485c-.302 0-.574-.138-.762-.357a2.973 2.973 0 001.068-1.752c.419.137.722.546.722 1.03 0 .596-.46 1.079-1.028 1.079z" fill="#fff"/></svg><svg viewBox="0 0 16 16" id="vk" xmlns="http://www.w3.org/2000/svg"><g clip-path="url(#vclip0)"><path d="M15.915 11.68a1.108 1.108 0 00-.054-.104c-.278-.5-.808-1.114-1.591-1.842l-.017-.016-.008-.008-.008-.009h-.009c-.355-.339-.58-.566-.675-.683-.172-.222-.21-.447-.116-.675.066-.172.316-.536.75-1.091.227-.294.408-.53.54-.708.962-1.277 1.378-2.094 1.25-2.45l-.05-.082c-.032-.05-.118-.096-.257-.138a1.312 1.312 0 00-.534-.02l-2.399.016a.311.311 0 00-.166.004l-.109.025-.041.021-.034.025a.37.37 0 00-.091.088.569.569 0 00-.083.145 13.603 13.603 0 01-.892 1.875c-.205.344-.394.643-.566.895a4.302 4.302 0 01-.434.558 3.02 3.02 0 01-.316.288c-.095.072-.167.103-.217.091a6.126 6.126 0 01-.141-.033.554.554 0 01-.188-.204.914.914 0 01-.096-.325 3.582 3.582 0 01-.029-.337 7.047 7.047 0 01.005-.4c.005-.173.008-.29.008-.35 0-.211.004-.44.012-.687l.021-.588c.006-.144.008-.297.008-.458 0-.161-.01-.287-.029-.379a1.297 1.297 0 00-.087-.267.449.449 0 00-.17-.2.963.963 0 00-.28-.112 5.543 5.543 0 00-1.125-.108c-1.032-.011-1.696.055-1.99.2a1.122 1.122 0 00-.317.25c-.1.122-.114.188-.042.2.333.05.57.169.708.358l.05.1c.04.072.078.2.117.383.039.183.064.386.075.608.028.405.028.752 0 1.041-.028.29-.054.514-.08.675a1.351 1.351 0 01-.212.575.143.143 0 01-.041.041.624.624 0 01-.225.042c-.078 0-.172-.039-.283-.117a1.999 1.999 0 01-.346-.32 4.287 4.287 0 01-.404-.57 9.957 9.957 0 01-.467-.867l-.133-.242a20.783 20.783 0 01-.341-.679 13.089 13.089 0 01-.384-.862.55.55 0 00-.2-.267l-.041-.025a.884.884 0 00-.325-.125l-2.283.017c-.233 0-.391.053-.475.158l-.033.05A.27.27 0 000 4.195c0 .06.017.136.05.224a27.49 27.49 0 001.087 2.266 25.46 25.46 0 001.02 1.758c.29.444.584.864.884 1.258.3.394.498.647.595.758.097.111.174.194.23.25l.208.2c.133.133.329.293.587.479.258.186.544.37.858.55.314.18.679.327 1.095.441.417.114.822.16 1.217.138h.958c.194-.017.341-.078.441-.184l.033-.041a.554.554 0 00.063-.154c.02-.07.03-.146.03-.23a2.746 2.746 0 01.053-.645c.042-.191.089-.336.142-.433a1.067 1.067 0 01.32-.367.543.543 0 01.067-.029c.133-.044.29-.001.471.13.18.13.35.291.508.483.159.191.349.406.57.645.223.24.417.417.584.534l.167.1c.11.066.255.127.433.183.177.055.333.07.466.041l2.133-.033c.21 0 .375-.035.491-.104.117-.07.186-.146.209-.23a.645.645 0 00.004-.283 1.065 1.065 0 00-.059-.22z"/></g><defs><clipPath id="vclip0"><path fill="#fff" d="M0 0h16v16H0z"/></clipPath></defs></svg></svg>