<svg width="16" height="16" xmlns="http://www.w3.org/2000/svg"><g clip-path="url(#clip0)"><path d="M15.915 11.68a1.108 1.108 0 00-.054-.104c-.278-.5-.808-1.114-1.591-1.842l-.017-.016-.008-.008-.008-.009h-.009c-.355-.339-.58-.566-.675-.683-.172-.222-.21-.447-.116-.675.066-.172.316-.536.75-1.091.227-.294.408-.53.54-.708.962-1.277 1.378-2.094 1.25-2.45l-.05-.082c-.032-.05-.118-.096-.257-.138a1.312 1.312 0 00-.534-.02l-2.399.016a.311.311 0 00-.166.004l-.109.025-.041.021-.034.025a.37.37 0 00-.091.088.569.569 0 00-.083.145 13.603 13.603 0 01-.892 1.875c-.205.344-.394.643-.566.895a4.302 4.302 0 01-.434.558 3.02 3.02 0 01-.316.288c-.095.072-.167.103-.217.091a6.126 6.126 0 01-.141-.033.554.554 0 01-.188-.204.914.914 0 01-.096-.325 3.582 3.582 0 01-.029-.337 7.047 7.047 0 01.005-.4c.005-.173.008-.29.008-.35 0-.211.004-.44.012-.687l.021-.588c.006-.144.008-.297.008-.458 0-.161-.01-.287-.029-.379a1.297 1.297 0 00-.087-.267.449.449 0 00-.17-.2.963.963 0 00-.28-.112 5.543 5.543 0 00-1.125-.108c-1.032-.011-1.696.055-1.99.2a1.122 1.122 0 00-.317.25c-.1.122-.114.188-.042.2.333.05.57.169.708.358l.05.1c.04.072.078.2.117.383.039.183.064.386.075.608.028.405.028.752 0 1.041-.028.29-.054.514-.08.675a1.351 1.351 0 01-.212.575.143.143 0 01-.041.041.624.624 0 01-.225.042c-.078 0-.172-.039-.283-.117a1.999 1.999 0 01-.346-.32 4.287 4.287 0 01-.404-.57 9.957 9.957 0 01-.467-.867l-.133-.242a20.783 20.783 0 01-.341-.679 13.089 13.089 0 01-.384-.862.55.55 0 00-.2-.267l-.041-.025a.884.884 0 00-.325-.125l-2.283.017c-.233 0-.391.053-.475.158l-.033.05A.27.27 0 000 4.195c0 .06.017.136.05.224a27.49 27.49 0 001.087 2.266 25.46 25.46 0 001.02 1.758c.29.444.584.864.884 1.258.3.394.498.647.595.758.097.111.174.194.23.25l.208.2c.133.133.329.293.587.479.258.186.544.37.858.55.314.18.679.327 1.095.441.417.114.822.16 1.217.138h.958c.194-.017.341-.078.441-.184l.033-.041a.554.554 0 00.063-.154c.02-.07.03-.146.03-.23a2.746 2.746 0 01.053-.645c.042-.191.089-.336.142-.433a1.067 1.067 0 01.32-.367.543.543 0 01.067-.029c.133-.044.29-.001.471.13.18.13.35.291.508.483.159.191.349.406.57.645.223.24.417.417.584.534l.167.1c.11.066.255.127.433.183.177.055.333.07.466.041l2.133-.033c.21 0 .375-.035.491-.104.117-.07.186-.146.209-.23a.645.645 0 00.004-.283 1.065 1.065 0 00-.059-.22z"/></g><defs><clipPath id="clip0"><path fill="#fff" d="M0 0h16v16H0z"/></clipPath></defs></svg>