<svg width="42" height="48" fill="none" xmlns="http://www.w3.org/2000/svg"><g clip-path="url(#clip0)" fill="#18A0FB"><path d="M25.265 6.193L17.957.053l-7.308 6.14L-.02.921l9.442 16.483h17.073L35.936.921l-10.67 5.272zM22.294 24.721H13.62L9.43 17.404H.653l8.778 15.324h17.052l8.78-15.324h-8.78l-4.189 7.317z"/><path d="M22.294 40.045H13.62L9.43 32.728H.653L9.32 48.266h17.052l8.891-15.538h-8.779l-4.19 7.317zM26.4 5.998l-7.31-6.14-.31.387 7.31 6.14.31-.387zM27.61 17.654H10.399v-.5h16.931L36.701.794l.422.253-9.512 16.607zM12.708 5.966L2.038.695l-.211.45 10.669 5.271.212-.45zM14.662 5.966L3.992.695l-.212.45 10.67 5.271.212-.45zM16.615 5.966L5.945.695l-.212.45 10.67 5.271.212-.45zM18.569 5.966L7.899.695l-.212.45 10.67 5.271.212-.45z"/><path d="M14.806 24.593l-4.187-7.317-.421.253 4.187 7.316.421-.252zM27.6 32.978H10.409v-.5h16.913l8.492-14.824h-8.212l-4.12 7.193-.421-.253 4.26-7.44h9.346l-9.065 15.824z"/><path d="M27.6 48.302h-8.666v-.5h8.386l8.493-14.824h-8.212l-4.12 7.194-.421-.254 4.26-7.44h9.346l-9.065 15.824zM14.805 39.924l-4.188-7.32-.421.253 4.188 7.32.421-.253zM27.377 5.998l-7.31-6.14-.31.387 7.31 6.14.31-.387zM28.587 17.654H11.374v-.5h16.932L37.678.794l.422.253-9.513 16.607z"/><path d="M15.783 24.593l-4.187-7.317-.422.253 4.187 7.316.422-.252zM28.578 32.978H11.384v-.5h16.912l8.493-14.824h-8.212l-4.12 7.193-.421-.253 4.26-7.44h9.346l-9.066 15.824z"/><path d="M28.578 48.302H19.91v-.5h8.386l8.493-14.824h-8.212l-4.12 7.194-.421-.254 4.26-7.44h9.346l-9.066 15.824zM15.782 39.924l-4.188-7.32-.421.253 4.187 7.32.422-.253zM28.354 5.998l-7.31-6.14-.31.387 7.31 6.14.31-.387zM29.564 17.654H12.351v-.5h16.932L38.655.794l.422.253-9.513 16.607z"/><path d="M16.76 24.593l-4.188-7.317-.42.253 4.186 7.316.421-.252zM29.554 32.978H12.362v-.5h16.912l8.493-14.824h-8.213l-4.119 7.193-.421-.253 4.26-7.44h9.346l-9.066 15.824z"/><path d="M29.554 48.302h-8.666v-.5h8.386l8.493-14.824h-8.213l-4.119 7.194-.421-.254 4.26-7.44h9.346l-9.066 15.824zM16.759 39.924l-4.188-7.32-.422.253 4.188 7.32.422-.253zM29.33 5.998l-7.31-6.14-.309.386 7.31 6.14.31-.386zM30.54 17.654H13.329v-.5H30.26L39.63.794l.422.253-9.512 16.607z"/><path d="M17.736 24.593l-4.187-7.317-.421.253 4.187 7.316.421-.252zM30.531 32.978H13.338v-.5h16.913l8.493-14.824H30.53l-4.119 7.193-.422-.253 4.26-7.44h9.346l-9.065 15.824z"/><path d="M30.531 48.302h-8.667v-.5h8.387l8.493-14.824H30.53l-4.119 7.194-.422-.254 4.26-7.44h9.346l-9.065 15.824zM17.735 39.924l-4.188-7.32-.42.253 4.187 7.32.421-.253zM30.301 6L22.994-.14l-.31.386 7.307 6.14.31-.387zM31.518 17.654H14.304v-.5h16.932L40.608.794l.422.253-9.512 16.607z"/><path d="M18.713 24.593l-4.187-7.317-.421.253 4.186 7.316.422-.252zM31.508 32.978H14.315v-.5h16.913l8.492-14.824h-8.212l-4.12 7.193-.421-.253 4.26-7.44h9.346l-9.065 15.824z"/><path d="M31.508 48.302H22.84v-.5h8.386l8.493-14.824h-8.212l-4.12 7.194-.421-.254 4.26-7.44h9.346l-9.065 15.824zM18.712 39.924l-4.188-7.32-.421.254 4.188 7.319.421-.253zM31.278 6L23.97-.14l-.31.386 7.308 6.14.31-.387zM32.494 17.654H15.281v-.5h16.932L41.585.794l.422.253-9.513 16.607z"/><path d="M19.69 24.593l-4.187-7.317-.422.253 4.187 7.316.421-.252zM32.484 32.978H15.292v-.5h16.912l8.493-14.824h-8.213l-4.118 7.193-.422-.253 4.26-7.44h9.346l-9.066 15.824z"/><path d="M32.484 48.302h-8.666v-.5h8.386l8.493-14.824h-8.213l-4.118 7.194-.422-.254 4.26-7.44h9.346l-9.066 15.824zM19.689 39.924l-4.188-7.32-.421.254 4.188 7.319.421-.253zM30.972 6.385L23.73.302h-5.773v-.5h5.949l7.374 6.197-.308.386z"/><path d="M32.494 17.654H15.281v-.5h16.932L41.369 1.17h-5.434v-.5h6.288l-9.729 16.984z"/><path d="M19.69 24.593l-4.187-7.317-.422.253 4.187 7.316.422-.252zM32.485 32.978H9.43v-.5h22.773l8.493-14.824h-8.212l-4.12 7.193-.421-.253 4.26-7.44h9.346l-9.065 15.824z"/><path d="M32.485 48.302h-8.667v-.5h8.386l8.493-14.824h-8.212l-4.12 7.194-.421-.254 4.26-7.44h9.346l-9.065 15.824zM19.689 39.924l-4.188-7.32-.421.254 4.188 7.319.421-.253zM20.31 6.417L9.69 1.17H-.02v-.5l9.872.025 10.67 5.272-.213.45z"/></g><defs><clipPath id="clip0"><path fill="#fff" d="M0 0h42v48H0z"/></clipPath></defs></svg>