<svg width="62" height="70" fill="none" xmlns="http://www.w3.org/2000/svg"><g clip-path="url(#clip0)" fill="#D9F4FF"><path d="M37.297 9.03L26.509.076 15.72 9.03-.03 1.342l13.937 24.037H39.11L53.05 1.343 37.297 9.03zM32.91 36.051H20.105l-6.181-10.67H.965l12.958 22.347H39.095l12.96-22.347h-12.96L32.91 36.05z"/><path d="M32.91 58.4H20.105l-6.181-10.672H.965l12.793 22.66H38.93l13.126-22.66h-12.96L32.911 58.4zM38.971 8.747L28.181-.207l-.457.564 10.79 8.954.457-.564zM40.758 25.745h-25.41v-.729h24.995L54.178 1.158l.623.369-14.043 24.218zM18.76 8.7L3.01 1.013l-.314.657 15.75 7.687.314-.657zM21.643 8.7L5.893 1.013l-.313.657 15.75 7.687.313-.657zM24.527 8.7L8.777 1.013l-.313.657 15.75 7.687.313-.657zM27.41 8.7L11.66 1.013l-.313.657 15.75 7.687.314-.657z"/><path d="M21.857 35.864l-6.181-10.67-.622.369 6.18 10.67.622-.369zM40.744 48.093h-25.38v-.73H40.33l12.537-21.618H40.744l-6.08 10.49-.623-.369 6.29-10.85h13.795L40.744 48.093z"/><path d="M40.744 70.44H27.95v-.729h12.38l12.537-21.618H40.744l-6.08 10.491-.623-.37 6.29-10.85h13.795L40.744 70.44zM21.855 58.222l-6.182-10.674-.622.369 6.182 10.673.622-.368zM40.413 8.747L29.623-.207l-.457.564 10.79 8.954.457-.564zM42.2 25.745H16.79v-.729h24.995L55.62 1.158l.623.369L42.2 25.745z"/><path d="M23.298 35.864l-6.18-10.67-.623.369 6.181 10.67.622-.369zM42.186 48.093h-25.38v-.73h24.966L54.31 25.746H42.186l-6.08 10.49-.623-.369 6.29-10.85h13.795L42.186 48.093z"/><path d="M42.186 70.44H29.392v-.729h12.38L54.31 48.093H42.186l-6.08 10.491-.623-.37 6.29-10.85h13.795L42.186 70.44zM23.297 58.222l-6.182-10.674-.622.369 6.182 10.674.622-.369zM41.855 8.747L31.065-.207l-.457.564 10.79 8.954.457-.564zM43.642 25.745h-25.41v-.729h24.995L57.062 1.158l.623.369-14.043 24.218z"/><path d="M24.74 35.864l-6.18-10.67-.623.369 6.181 10.67.622-.369zM43.628 48.093h-25.38v-.73h24.966l12.537-21.618H43.628l-6.08 10.49-.623-.369 6.289-10.85H57.01L43.628 48.093z"/><path d="M43.628 70.44H30.834v-.729h12.38l12.537-21.618H43.628l-6.08 10.491-.623-.37 6.289-10.85H57.01L43.628 70.44zM24.739 58.222l-6.182-10.674-.622.369 6.182 10.674.622-.369zM43.297 8.747L32.507-.207l-.457.563 10.79 8.955.457-.564zM45.084 25.745h-25.41v-.729H44.67L58.504 1.158l.622.369-14.042 24.218z"/><path d="M26.182 35.864l-6.18-10.67-.623.369 6.18 10.67.623-.369zM45.07 48.093H19.69v-.73h24.966l12.537-21.618H45.07l-6.08 10.49-.623-.369 6.289-10.85h13.796L45.07 48.093z"/><path d="M45.07 70.44H32.276v-.729h12.38l12.537-21.618H45.07l-6.08 10.49-.623-.37 6.289-10.85h13.796L45.07 70.44zM26.18 58.222L20 47.548l-.622.369 6.182 10.674.622-.369zM44.73 8.75L33.944-.206l-.458.563 10.788 8.955.457-.564zM46.526 25.746h-25.41v-.73h24.995L59.945 1.159l.623.37-14.042 24.218z"/><path d="M27.624 35.864l-6.181-10.67-.622.37L27 36.233l.623-.37zM46.511 48.093h-25.38v-.73h24.967l12.537-21.617H46.512l-6.08 10.49-.624-.37 6.29-10.85h13.796L46.51 48.093z"/><path d="M46.511 70.44H33.718v-.728h12.38l12.537-21.619H46.512l-6.08 10.491-.624-.37 6.29-10.85h13.796L46.51 70.441zM27.623 58.222L21.44 47.55l-.622.368L27 58.591l.622-.369zM46.172 8.75L35.385-.206l-.458.563 10.788 8.955.457-.564zM47.968 25.746h-25.41v-.73h24.995L61.387 1.159l.623.37-14.042 24.218z"/><path d="M29.066 35.864l-6.181-10.67-.622.37 6.18 10.67.622-.37zM47.953 48.093h-25.38v-.73H47.54l12.537-21.617H47.953l-6.08 10.49-.623-.37 6.29-10.85h13.795L47.953 48.093z"/><path d="M47.953 70.44H35.16v-.728h12.38l12.537-21.619H47.953l-6.08 10.491-.623-.37 6.29-10.85h13.795L47.953 70.441zM29.065 58.222L22.883 47.55l-.622.368 6.182 10.674.622-.369zM45.72 9.311L35.03.441h-8.521v-.73h8.78l10.887 9.037-.456.563z"/><path d="M47.968 25.745h-25.41v-.729h24.995l13.516-23.31h-8.022V.977h9.282L47.968 25.745z"/><path d="M29.066 35.864l-6.181-10.67-.622.369 6.18 10.67.622-.369zM47.953 48.093h-34.03v-.73H47.54l12.537-21.618H47.953l-6.08 10.49-.623-.369 6.29-10.85h13.795L47.953 48.093z"/><path d="M47.953 70.44H35.16v-.729h12.38l12.537-21.618H47.953l-6.08 10.491-.623-.37 6.29-10.85h13.795L47.953 70.44zM29.065 58.222L22.883 47.55l-.622.368 6.182 10.674.622-.369zM29.98 9.358L14.306 1.706H-.03V.977l14.574.037 15.75 7.688-.313.656z"/></g><defs><clipPath id="clip0"><path fill="#fff" d="M0 0h62v70H0z"/></clipPath></defs></svg>