<svg width="41" height="48" fill="none" xmlns="http://www.w3.org/2000/svg"><path d="M25.77 6.14L18.322 0l-7.448 6.14L0 .87l9.623 16.483H27.02L36.642.87 25.77 6.14z" fill="#18A0FB"/><path d="M22.741 24.669h-8.839l-4.27-7.319H.688l8.944 15.327H27.01l8.947-15.327H27.01l-4.268 7.319z" fill="#18A0FB"/><path d="M22.741 39.992h-8.839l-4.27-7.316H.688L9.632 48H27.01l8.947-15.323H27.01l-4.268 7.316zM32.547 15.35L41 .87h-2.307L30.239 15.35h2.308zM40.315 17.352h-2.308l-7.778 13.324h2.306l7.78-13.324zM38.009 32.677L29.079 48h2.307l8.93-15.323h-2.307z" fill="#18A0FB"/></svg>