<svg width="48" height="54" fill="none" xmlns="http://www.w3.org/2000/svg"><g clip-path="url(#clip0)" fill="#fff"><path d="M28.875 6.966L20.523.06 12.17 6.966-.023 1.036l10.79 18.542h19.512L41.07 1.035 28.875 6.966zM25.479 27.811h-9.915L10.78 19.58H.747l10.032 17.24h19.488L40.3 19.58H30.267l-4.788 8.231zM25.479 45.05h-9.915l-4.785-8.23H.747l9.905 17.48H30.14L40.3 36.82H30.268l-4.789 8.23z"/><path d="M30.171 6.748L21.818-.16l-.354.435 8.353 6.908.354-.435zM31.555 19.86H11.883v-.562h19.35L41.944.893l.482.285L31.555 19.86zM14.524 6.712L2.33.782l-.243.506 12.194 5.93.243-.506zM16.756 6.712L4.563.782l-.243.506 12.194 5.93.242-.506zM18.989 6.712L6.795.782l-.243.506 12.194 5.93.243-.506zM21.221 6.712L9.028.782l-.243.506 12.194 5.93.242-.506z"/><path d="M16.921 27.667l-4.785-8.231-.481.284 4.785 8.231.481-.284zM31.544 37.1H11.895v-.562h19.328L40.93 19.86h-9.385l-4.708 8.092-.482-.285 4.87-8.37h10.68L31.544 37.1z"/><path d="M31.544 54.34h-9.905v-.563h9.584L40.93 37.1h-9.385l-4.708 8.094-.482-.286 4.87-8.37h10.68L31.544 54.34zM16.92 44.914l-4.786-8.234-.482.285 4.787 8.233.481-.284zM31.288 6.748L22.934-.16l-.354.435 8.354 6.908.354-.435zM32.671 19.86H13v-.562h19.35L43.062.893l.482.285L32.67 19.86z"/><path d="M18.037 27.667l-4.785-8.231-.481.284 4.785 8.231.481-.284zM32.66 37.1H13.011v-.562H32.34l9.706-16.677H32.66l-4.707 8.092-.482-.285 4.869-8.37h10.68L32.66 37.1z"/><path d="M32.66 54.34h-9.905v-.563h9.585L42.046 37.1H32.66l-4.707 8.094-.482-.286 4.869-8.37h10.68L32.66 54.34zM18.036 44.914L13.25 36.68l-.481.285 4.786 8.233.481-.284zM32.404 6.748L24.05-.16l-.354.435 8.354 6.908.354-.435zM33.788 19.86H14.115v-.562h19.351L44.176.893l.483.285L33.788 19.86z"/><path d="M19.154 27.667l-4.786-8.231-.481.284 4.785 8.231.482-.284zM33.776 37.1H14.128v-.562h19.328l9.706-16.677h-9.386l-4.707 8.092-.482-.285 4.869-8.37h10.68L33.777 37.1z"/><path d="M33.776 54.34h-9.904v-.563h9.584L43.162 37.1h-9.386l-4.707 8.094-.482-.286 4.869-8.37h10.68L33.777 54.34zM19.153 44.914l-4.786-8.234-.482.285 4.786 8.233.482-.284zM33.52 6.748L25.167-.16l-.355.435 8.354 6.907.354-.434zM34.904 19.86H15.232v-.562h19.35L45.293.893l.482.285L34.904 19.86z"/><path d="M20.27 27.667l-4.785-8.232-.482.285 4.785 8.231.482-.284zM34.893 37.1h-19.65v-.562h19.33l9.705-16.677h-9.385l-4.708 8.092-.482-.285 4.87-8.37h10.68L34.893 37.1z"/><path d="M34.893 54.34h-9.905v-.563h9.584L44.278 37.1h-9.385l-4.708 8.093-.482-.285 4.87-8.37h10.68L34.893 54.34zM20.27 44.914l-4.787-8.234-.482.285 4.786 8.233.482-.284zM34.63 6.75L26.278-.159l-.354.434 8.352 6.908.354-.435zM36.02 19.86H16.348v-.562h19.35L46.41.893l.483.285L36.02 19.86z"/><path d="M21.386 27.667l-4.785-8.231-.482.284 4.785 8.231.482-.284zM36.009 37.1H16.36v-.562h19.328l9.707-16.677h-9.386l-4.707 8.092-.483-.285 4.87-8.37h10.68L36.01 37.1z"/><path d="M36.009 54.34h-9.905v-.563h9.585L45.395 37.1h-9.386l-4.707 8.094-.483-.286 4.87-8.37h10.68L36.01 54.34zM21.386 44.914l-4.787-8.234-.481.285 4.786 8.234.482-.285zM35.746 6.75L27.394-.159l-.354.434 8.352 6.908.354-.435zM37.136 19.86H17.464v-.562h19.35L47.527.893l.482.285L37.136 19.86z"/><path d="M22.502 27.667l-4.785-8.231-.481.284 4.785 8.231.481-.284zM37.125 37.1H17.477v-.562h19.328L46.51 19.86h-9.386l-4.707 8.092-.482-.285 4.869-8.37h10.68L37.125 37.1z"/><path d="M37.125 54.34h-9.904v-.563h9.584L46.51 37.1h-9.386l-4.707 8.094-.482-.286 4.869-8.37h10.68L37.126 54.34zM22.502 44.914l-4.786-8.234-.482.285 4.786 8.234.482-.285zM35.396 7.183L27.12.34h-6.597v-.563h6.798l8.428 6.972-.353.434z"/><path d="M37.136 19.86H17.464v-.562h19.35L47.28 1.316h-6.21V.754h7.186L37.136 19.86z"/><path d="M22.502 27.667l-4.785-8.231-.481.284 4.785 8.231.481-.284zM37.125 37.1H10.78v-.562h26.026L46.51 19.86h-9.386l-4.707 8.092-.482-.285 4.869-8.37h10.68L37.125 37.1z"/><path d="M37.125 54.34h-9.904v-.563h9.584L46.51 37.1h-9.386l-4.707 8.094-.482-.286 4.869-8.37h10.68L37.125 54.34zM22.502 44.914l-4.786-8.234-.482.285 4.786 8.234.482-.285zM23.21 7.22L11.076 1.315H-.023V.754L11.26.782l12.194 5.931-.243.506z"/></g><defs><clipPath id="clip0"><path fill="#fff" d="M0 0h48v54H0z"/></clipPath></defs></svg>