<svg width="51" height="51" fill="none" xmlns="http://www.w3.org/2000/svg"><path d="M36.648 36.648c6.248-6.248 6.09-16.537-.354-22.98-6.443-6.444-16.732-6.603-22.98-.354-6.249 6.248-6.09 16.537.353 22.98 6.444 6.444 16.733 6.602 22.98.354zM12.608 33.818L6.95 39.475"/><path d="M14.022 18.262l7.07 7.071-6.363 6.364M6.95 11.191l4.244 4.242M17.558 10.484l-4.95-4.95M31.7 14.726l-4.95 4.95-7.071-7.07M39.478 6.948l-4.95 4.95M39.478 18.262l5.657-5.657M21.093 36.647l4.654-4.654 6.249-6.249 4.654-4.654M12.608 45.132l5.657-5.657M36.65 36.647l12.727 12.727"/></svg>